<?xml version="1.0" encoding="utf-8" standalone="no"?>
<!DOCTYPE svg PUBLIC "-//W3C//DTD SVG 1.1//EN"
  "http://www.w3.org/Graphics/SVG/1.1/DTD/svg11.dtd">
<svg xmlns:xlink="http://www.w3.org/1999/xlink" width="720pt" height="298.8pt" viewBox="0 0 720 298.8" xmlns="http://www.w3.org/2000/svg" version="1.1">
 <metadata>
  <rdf:RDF xmlns:dc="http://purl.org/dc/elements/1.1/" xmlns:cc="http://creativecommons.org/ns#" xmlns:rdf="http://www.w3.org/1999/02/22-rdf-syntax-ns#">
   <cc:Work>
    <dc:type rdf:resource="http://purl.org/dc/dcmitype/StillImage"/>
    <dc:date>2022-02-26T18:30:33.403813</dc:date>
    <dc:format>image/svg+xml</dc:format>
    <dc:creator>
     <cc:Agent>
      <dc:title>Matplotlib v3.5.1, https://matplotlib.org/</dc:title>
     </cc:Agent>
    </dc:creator>
   </cc:Work>
  </rdf:RDF>
 </metadata>
 <defs>
  <style type="text/css">*{stroke-linejoin: round; stroke-linecap: butt}</style>
 </defs>
 <g id="figure_1">
  <g id="patch_1">
   <path d="M 0 298.8 
L 720 298.8 
L 720 0 
L 0 0 
z
" style="fill: #ffffff"/>
  </g>
  <g id="axes_1">
   <g id="patch_2">
    <path d="M 90 140.436 
L 648 140.436 
L 648 35.856 
L 90 35.856 
z
" style="fill: #ffffff"/>
   </g>
   <g id="matplotlib.axis_1">
    <g id="xtick_1">
     <g id="line2d_1">
      <path d="M 166.951075 140.436 
L 166.951075 35.856 
" clip-path="url(#p2335841b52)" style="fill: none; stroke: #b0b0b0; stroke-width: 0.8; stroke-linecap: square"/>
     </g>
     <g id="line2d_2">
      <defs>
       <path id="mcc5188603a" d="M 0 0 
L 0 3.5 
" style="stroke: #000000; stroke-width: 0.8"/>
      </defs>
      <g>
       <use xlink:href="#mcc5188603a" x="166.951075" y="140.436" style="stroke: #000000; stroke-width: 0.8"/>
      </g>
     </g>
     <g id="text_1">
      <!-- $\mathdefault{10^{0}}$ -->
      <g transform="translate(158.151075 155.034437)scale(0.1 -0.1)">
       <defs>
        <path id="DejaVuSans-31" d="M 794 531 
L 1825 531 
L 1825 4091 
L 703 3866 
L 703 4441 
L 1819 4666 
L 2450 4666 
L 2450 531 
L 3481 531 
L 3481 0 
L 794 0 
L 794 531 
z
" transform="scale(0.015625)"/>
        <path id="DejaVuSans-30" d="M 2034 4250 
Q 1547 4250 1301 3770 
Q 1056 3291 1056 2328 
Q 1056 1369 1301 889 
Q 1547 409 2034 409 
Q 2525 409 2770 889 
Q 3016 1369 3016 2328 
Q 3016 3291 2770 3770 
Q 2525 4250 2034 4250 
z
M 2034 4750 
Q 2819 4750 3233 4129 
Q 3647 3509 3647 2328 
Q 3647 1150 3233 529 
Q 2819 -91 2034 -91 
Q 1250 -91 836 529 
Q 422 1150 422 2328 
Q 422 3509 836 4129 
Q 1250 4750 2034 4750 
z
" transform="scale(0.015625)"/>
       </defs>
       <use xlink:href="#DejaVuSans-31" transform="translate(0 0.765625)"/>
       <use xlink:href="#DejaVuSans-30" transform="translate(63.623047 0.765625)"/>
       <use xlink:href="#DejaVuSans-30" transform="translate(128.203125 39.046875)scale(0.7)"/>
      </g>
     </g>
    </g>
    <g id="xtick_2">
     <g id="line2d_3">
      <path d="M 358.718932 140.436 
L 358.718932 35.856 
" clip-path="url(#p2335841b52)" style="fill: none; stroke: #b0b0b0; stroke-width: 0.8; stroke-linecap: square"/>
     </g>
     <g id="line2d_4">
      <g>
       <use xlink:href="#mcc5188603a" x="358.718932" y="140.436" style="stroke: #000000; stroke-width: 0.8"/>
      </g>
     </g>
     <g id="text_2">
      <!-- $\mathdefault{10^{1}}$ -->
      <g transform="translate(349.918932 155.034437)scale(0.1 -0.1)">
       <use xlink:href="#DejaVuSans-31" transform="translate(0 0.684375)"/>
       <use xlink:href="#DejaVuSans-30" transform="translate(63.623047 0.684375)"/>
       <use xlink:href="#DejaVuSans-31" transform="translate(128.203125 38.965625)scale(0.7)"/>
      </g>
     </g>
    </g>
    <g id="xtick_3">
     <g id="line2d_5">
      <path d="M 550.486789 140.436 
L 550.486789 35.856 
" clip-path="url(#p2335841b52)" style="fill: none; stroke: #b0b0b0; stroke-width: 0.8; stroke-linecap: square"/>
     </g>
     <g id="line2d_6">
      <g>
       <use xlink:href="#mcc5188603a" x="550.486789" y="140.436" style="stroke: #000000; stroke-width: 0.8"/>
      </g>
     </g>
     <g id="text_3">
      <!-- $\mathdefault{10^{2}}$ -->
      <g transform="translate(541.686789 155.034437)scale(0.1 -0.1)">
       <defs>
        <path id="DejaVuSans-32" d="M 1228 531 
L 3431 531 
L 3431 0 
L 469 0 
L 469 531 
Q 828 903 1448 1529 
Q 2069 2156 2228 2338 
Q 2531 2678 2651 2914 
Q 2772 3150 2772 3378 
Q 2772 3750 2511 3984 
Q 2250 4219 1831 4219 
Q 1534 4219 1204 4116 
Q 875 4013 500 3803 
L 500 4441 
Q 881 4594 1212 4672 
Q 1544 4750 1819 4750 
Q 2544 4750 2975 4387 
Q 3406 4025 3406 3419 
Q 3406 3131 3298 2873 
Q 3191 2616 2906 2266 
Q 2828 2175 2409 1742 
Q 1991 1309 1228 531 
z
" transform="scale(0.015625)"/>
       </defs>
       <use xlink:href="#DejaVuSans-31" transform="translate(0 0.765625)"/>
       <use xlink:href="#DejaVuSans-30" transform="translate(63.623047 0.765625)"/>
       <use xlink:href="#DejaVuSans-32" transform="translate(128.203125 39.046875)scale(0.7)"/>
      </g>
     </g>
    </g>
    <g id="xtick_4">
     <g id="line2d_7">
      <defs>
       <path id="mf09b9be7d6" d="M 0 0 
L 0 2 
" style="stroke: #000000; stroke-width: 0.6"/>
      </defs>
      <g>
       <use xlink:href="#mf09b9be7d6" x="90.638972" y="140.436" style="stroke: #000000; stroke-width: 0.6"/>
      </g>
     </g>
    </g>
    <g id="xtick_5">
     <g id="line2d_8">
      <g>
       <use xlink:href="#mf09b9be7d6" x="109.223198" y="140.436" style="stroke: #000000; stroke-width: 0.6"/>
      </g>
     </g>
    </g>
    <g id="xtick_6">
     <g id="line2d_9">
      <g>
       <use xlink:href="#mf09b9be7d6" x="124.407616" y="140.436" style="stroke: #000000; stroke-width: 0.6"/>
      </g>
     </g>
    </g>
    <g id="xtick_7">
     <g id="line2d_10">
      <g>
       <use xlink:href="#mf09b9be7d6" x="137.245858" y="140.436" style="stroke: #000000; stroke-width: 0.6"/>
      </g>
     </g>
    </g>
    <g id="xtick_8">
     <g id="line2d_11">
      <g>
       <use xlink:href="#mf09b9be7d6" x="148.36685" y="140.436" style="stroke: #000000; stroke-width: 0.6"/>
      </g>
     </g>
    </g>
    <g id="xtick_9">
     <g id="line2d_12">
      <g>
       <use xlink:href="#mf09b9be7d6" x="158.176259" y="140.436" style="stroke: #000000; stroke-width: 0.6"/>
      </g>
     </g>
    </g>
    <g id="xtick_10">
     <g id="line2d_13">
      <g>
       <use xlink:href="#mf09b9be7d6" x="224.678952" y="140.436" style="stroke: #000000; stroke-width: 0.6"/>
      </g>
     </g>
    </g>
    <g id="xtick_11">
     <g id="line2d_14">
      <g>
       <use xlink:href="#mf09b9be7d6" x="258.447596" y="140.436" style="stroke: #000000; stroke-width: 0.6"/>
      </g>
     </g>
    </g>
    <g id="xtick_12">
     <g id="line2d_15">
      <g>
       <use xlink:href="#mf09b9be7d6" x="282.406829" y="140.436" style="stroke: #000000; stroke-width: 0.6"/>
      </g>
     </g>
    </g>
    <g id="xtick_13">
     <g id="line2d_16">
      <g>
       <use xlink:href="#mf09b9be7d6" x="300.991055" y="140.436" style="stroke: #000000; stroke-width: 0.6"/>
      </g>
     </g>
    </g>
    <g id="xtick_14">
     <g id="line2d_17">
      <g>
       <use xlink:href="#mf09b9be7d6" x="316.175473" y="140.436" style="stroke: #000000; stroke-width: 0.6"/>
      </g>
     </g>
    </g>
    <g id="xtick_15">
     <g id="line2d_18">
      <g>
       <use xlink:href="#mf09b9be7d6" x="329.013715" y="140.436" style="stroke: #000000; stroke-width: 0.6"/>
      </g>
     </g>
    </g>
    <g id="xtick_16">
     <g id="line2d_19">
      <g>
       <use xlink:href="#mf09b9be7d6" x="340.134707" y="140.436" style="stroke: #000000; stroke-width: 0.6"/>
      </g>
     </g>
    </g>
    <g id="xtick_17">
     <g id="line2d_20">
      <g>
       <use xlink:href="#mf09b9be7d6" x="349.944116" y="140.436" style="stroke: #000000; stroke-width: 0.6"/>
      </g>
     </g>
    </g>
    <g id="xtick_18">
     <g id="line2d_21">
      <g>
       <use xlink:href="#mf09b9be7d6" x="416.446809" y="140.436" style="stroke: #000000; stroke-width: 0.6"/>
      </g>
     </g>
    </g>
    <g id="xtick_19">
     <g id="line2d_22">
      <g>
       <use xlink:href="#mf09b9be7d6" x="450.215453" y="140.436" style="stroke: #000000; stroke-width: 0.6"/>
      </g>
     </g>
    </g>
    <g id="xtick_20">
     <g id="line2d_23">
      <g>
       <use xlink:href="#mf09b9be7d6" x="474.174687" y="140.436" style="stroke: #000000; stroke-width: 0.6"/>
      </g>
     </g>
    </g>
    <g id="xtick_21">
     <g id="line2d_24">
      <g>
       <use xlink:href="#mf09b9be7d6" x="492.758912" y="140.436" style="stroke: #000000; stroke-width: 0.6"/>
      </g>
     </g>
    </g>
    <g id="xtick_22">
     <g id="line2d_25">
      <g>
       <use xlink:href="#mf09b9be7d6" x="507.94333" y="140.436" style="stroke: #000000; stroke-width: 0.6"/>
      </g>
     </g>
    </g>
    <g id="xtick_23">
     <g id="line2d_26">
      <g>
       <use xlink:href="#mf09b9be7d6" x="520.781572" y="140.436" style="stroke: #000000; stroke-width: 0.6"/>
      </g>
     </g>
    </g>
    <g id="xtick_24">
     <g id="line2d_27">
      <g>
       <use xlink:href="#mf09b9be7d6" x="531.902564" y="140.436" style="stroke: #000000; stroke-width: 0.6"/>
      </g>
     </g>
    </g>
    <g id="xtick_25">
     <g id="line2d_28">
      <g>
       <use xlink:href="#mf09b9be7d6" x="541.711973" y="140.436" style="stroke: #000000; stroke-width: 0.6"/>
      </g>
     </g>
    </g>
    <g id="xtick_26">
     <g id="line2d_29">
      <g>
       <use xlink:href="#mf09b9be7d6" x="608.214667" y="140.436" style="stroke: #000000; stroke-width: 0.6"/>
      </g>
     </g>
    </g>
    <g id="xtick_27">
     <g id="line2d_30">
      <g>
       <use xlink:href="#mf09b9be7d6" x="641.98331" y="140.436" style="stroke: #000000; stroke-width: 0.6"/>
      </g>
     </g>
    </g>
    <g id="text_4">
     <!-- JSON size (MB) -->
     <g transform="translate(332.155469 168.712562)scale(0.1 -0.1)">
      <defs>
       <path id="DejaVuSans-4a" d="M 628 4666 
L 1259 4666 
L 1259 325 
Q 1259 -519 939 -900 
Q 619 -1281 -91 -1281 
L -331 -1281 
L -331 -750 
L -134 -750 
Q 284 -750 456 -515 
Q 628 -281 628 325 
L 628 4666 
z
" transform="scale(0.015625)"/>
       <path id="DejaVuSans-53" d="M 3425 4513 
L 3425 3897 
Q 3066 4069 2747 4153 
Q 2428 4238 2131 4238 
Q 1616 4238 1336 4038 
Q 1056 3838 1056 3469 
Q 1056 3159 1242 3001 
Q 1428 2844 1947 2747 
L 2328 2669 
Q 3034 2534 3370 2195 
Q 3706 1856 3706 1288 
Q 3706 609 3251 259 
Q 2797 -91 1919 -91 
Q 1588 -91 1214 -16 
Q 841 59 441 206 
L 441 856 
Q 825 641 1194 531 
Q 1563 422 1919 422 
Q 2459 422 2753 634 
Q 3047 847 3047 1241 
Q 3047 1584 2836 1778 
Q 2625 1972 2144 2069 
L 1759 2144 
Q 1053 2284 737 2584 
Q 422 2884 422 3419 
Q 422 4038 858 4394 
Q 1294 4750 2059 4750 
Q 2388 4750 2728 4690 
Q 3069 4631 3425 4513 
z
" transform="scale(0.015625)"/>
       <path id="DejaVuSans-4f" d="M 2522 4238 
Q 1834 4238 1429 3725 
Q 1025 3213 1025 2328 
Q 1025 1447 1429 934 
Q 1834 422 2522 422 
Q 3209 422 3611 934 
Q 4013 1447 4013 2328 
Q 4013 3213 3611 3725 
Q 3209 4238 2522 4238 
z
M 2522 4750 
Q 3503 4750 4090 4092 
Q 4678 3434 4678 2328 
Q 4678 1225 4090 567 
Q 3503 -91 2522 -91 
Q 1538 -91 948 565 
Q 359 1222 359 2328 
Q 359 3434 948 4092 
Q 1538 4750 2522 4750 
z
" transform="scale(0.015625)"/>
       <path id="DejaVuSans-4e" d="M 628 4666 
L 1478 4666 
L 3547 763 
L 3547 4666 
L 4159 4666 
L 4159 0 
L 3309 0 
L 1241 3903 
L 1241 0 
L 628 0 
L 628 4666 
z
" transform="scale(0.015625)"/>
       <path id="DejaVuSans-20" transform="scale(0.015625)"/>
       <path id="DejaVuSans-73" d="M 2834 3397 
L 2834 2853 
Q 2591 2978 2328 3040 
Q 2066 3103 1784 3103 
Q 1356 3103 1142 2972 
Q 928 2841 928 2578 
Q 928 2378 1081 2264 
Q 1234 2150 1697 2047 
L 1894 2003 
Q 2506 1872 2764 1633 
Q 3022 1394 3022 966 
Q 3022 478 2636 193 
Q 2250 -91 1575 -91 
Q 1294 -91 989 -36 
Q 684 19 347 128 
L 347 722 
Q 666 556 975 473 
Q 1284 391 1588 391 
Q 1994 391 2212 530 
Q 2431 669 2431 922 
Q 2431 1156 2273 1281 
Q 2116 1406 1581 1522 
L 1381 1569 
Q 847 1681 609 1914 
Q 372 2147 372 2553 
Q 372 3047 722 3315 
Q 1072 3584 1716 3584 
Q 2034 3584 2315 3537 
Q 2597 3491 2834 3397 
z
" transform="scale(0.015625)"/>
       <path id="DejaVuSans-69" d="M 603 3500 
L 1178 3500 
L 1178 0 
L 603 0 
L 603 3500 
z
M 603 4863 
L 1178 4863 
L 1178 4134 
L 603 4134 
L 603 4863 
z
" transform="scale(0.015625)"/>
       <path id="DejaVuSans-7a" d="M 353 3500 
L 3084 3500 
L 3084 2975 
L 922 459 
L 3084 459 
L 3084 0 
L 275 0 
L 275 525 
L 2438 3041 
L 353 3041 
L 353 3500 
z
" transform="scale(0.015625)"/>
       <path id="DejaVuSans-65" d="M 3597 1894 
L 3597 1613 
L 953 1613 
Q 991 1019 1311 708 
Q 1631 397 2203 397 
Q 2534 397 2845 478 
Q 3156 559 3463 722 
L 3463 178 
Q 3153 47 2828 -22 
Q 2503 -91 2169 -91 
Q 1331 -91 842 396 
Q 353 884 353 1716 
Q 353 2575 817 3079 
Q 1281 3584 2069 3584 
Q 2775 3584 3186 3129 
Q 3597 2675 3597 1894 
z
M 3022 2063 
Q 3016 2534 2758 2815 
Q 2500 3097 2075 3097 
Q 1594 3097 1305 2825 
Q 1016 2553 972 2059 
L 3022 2063 
z
" transform="scale(0.015625)"/>
       <path id="DejaVuSans-28" d="M 1984 4856 
Q 1566 4138 1362 3434 
Q 1159 2731 1159 2009 
Q 1159 1288 1364 580 
Q 1569 -128 1984 -844 
L 1484 -844 
Q 1016 -109 783 600 
Q 550 1309 550 2009 
Q 550 2706 781 3412 
Q 1013 4119 1484 4856 
L 1984 4856 
z
" transform="scale(0.015625)"/>
       <path id="DejaVuSans-4d" d="M 628 4666 
L 1569 4666 
L 2759 1491 
L 3956 4666 
L 4897 4666 
L 4897 0 
L 4281 0 
L 4281 4097 
L 3078 897 
L 2444 897 
L 1241 4097 
L 1241 0 
L 628 0 
L 628 4666 
z
" transform="scale(0.015625)"/>
       <path id="DejaVuSans-42" d="M 1259 2228 
L 1259 519 
L 2272 519 
Q 2781 519 3026 730 
Q 3272 941 3272 1375 
Q 3272 1813 3026 2020 
Q 2781 2228 2272 2228 
L 1259 2228 
z
M 1259 4147 
L 1259 2741 
L 2194 2741 
Q 2656 2741 2882 2914 
Q 3109 3088 3109 3444 
Q 3109 3797 2882 3972 
Q 2656 4147 2194 4147 
L 1259 4147 
z
M 628 4666 
L 2241 4666 
Q 2963 4666 3353 4366 
Q 3744 4066 3744 3513 
Q 3744 3084 3544 2831 
Q 3344 2578 2956 2516 
Q 3422 2416 3680 2098 
Q 3938 1781 3938 1306 
Q 3938 681 3513 340 
Q 3088 0 2303 0 
L 628 0 
L 628 4666 
z
" transform="scale(0.015625)"/>
       <path id="DejaVuSans-29" d="M 513 4856 
L 1013 4856 
Q 1481 4119 1714 3412 
Q 1947 2706 1947 2009 
Q 1947 1309 1714 600 
Q 1481 -109 1013 -844 
L 513 -844 
Q 928 -128 1133 580 
Q 1338 1288 1338 2009 
Q 1338 2731 1133 3434 
Q 928 4138 513 4856 
z
" transform="scale(0.015625)"/>
      </defs>
      <use xlink:href="#DejaVuSans-4a"/>
      <use xlink:href="#DejaVuSans-53" x="29.492188"/>
      <use xlink:href="#DejaVuSans-4f" x="92.96875"/>
      <use xlink:href="#DejaVuSans-4e" x="171.679688"/>
      <use xlink:href="#DejaVuSans-20" x="246.484375"/>
      <use xlink:href="#DejaVuSans-73" x="278.271484"/>
      <use xlink:href="#DejaVuSans-69" x="330.371094"/>
      <use xlink:href="#DejaVuSans-7a" x="358.154297"/>
      <use xlink:href="#DejaVuSans-65" x="410.644531"/>
      <use xlink:href="#DejaVuSans-20" x="472.167969"/>
      <use xlink:href="#DejaVuSans-28" x="503.955078"/>
      <use xlink:href="#DejaVuSans-4d" x="542.96875"/>
      <use xlink:href="#DejaVuSans-42" x="629.248047"/>
      <use xlink:href="#DejaVuSans-29" x="697.851562"/>
     </g>
    </g>
   </g>
   <g id="matplotlib.axis_2">
    <g id="ytick_1">
     <g id="line2d_31">
      <path d="M 90 119.221648 
L 648 119.221648 
" clip-path="url(#p2335841b52)" style="fill: none; stroke: #b0b0b0; stroke-width: 0.8; stroke-linecap: square"/>
     </g>
     <g id="line2d_32">
      <defs>
       <path id="m059c27144b" d="M 0 0 
L -3.5 0 
" style="stroke: #000000; stroke-width: 0.8"/>
      </defs>
      <g>
       <use xlink:href="#m059c27144b" x="90" y="119.221648" style="stroke: #000000; stroke-width: 0.8"/>
      </g>
     </g>
     <g id="text_5">
      <!-- 0.50 -->
      <g transform="translate(60.734375 123.020866)scale(0.1 -0.1)">
       <defs>
        <path id="DejaVuSans-2e" d="M 684 794 
L 1344 794 
L 1344 0 
L 684 0 
L 684 794 
z
" transform="scale(0.015625)"/>
        <path id="DejaVuSans-35" d="M 691 4666 
L 3169 4666 
L 3169 4134 
L 1269 4134 
L 1269 2991 
Q 1406 3038 1543 3061 
Q 1681 3084 1819 3084 
Q 2600 3084 3056 2656 
Q 3513 2228 3513 1497 
Q 3513 744 3044 326 
Q 2575 -91 1722 -91 
Q 1428 -91 1123 -41 
Q 819 9 494 109 
L 494 744 
Q 775 591 1075 516 
Q 1375 441 1709 441 
Q 2250 441 2565 725 
Q 2881 1009 2881 1497 
Q 2881 1984 2565 2268 
Q 2250 2553 1709 2553 
Q 1456 2553 1204 2497 
Q 953 2441 691 2322 
L 691 4666 
z
" transform="scale(0.015625)"/>
       </defs>
       <use xlink:href="#DejaVuSans-30"/>
       <use xlink:href="#DejaVuSans-2e" x="63.623047"/>
       <use xlink:href="#DejaVuSans-35" x="95.410156"/>
       <use xlink:href="#DejaVuSans-30" x="159.033203"/>
      </g>
     </g>
    </g>
    <g id="ytick_2">
     <g id="line2d_33">
      <path d="M 90 95.539305 
L 648 95.539305 
" clip-path="url(#p2335841b52)" style="fill: none; stroke: #b0b0b0; stroke-width: 0.8; stroke-linecap: square"/>
     </g>
     <g id="line2d_34">
      <g>
       <use xlink:href="#m059c27144b" x="90" y="95.539305" style="stroke: #000000; stroke-width: 0.8"/>
      </g>
     </g>
     <g id="text_6">
      <!-- 0.75 -->
      <g transform="translate(60.734375 99.338524)scale(0.1 -0.1)">
       <defs>
        <path id="DejaVuSans-37" d="M 525 4666 
L 3525 4666 
L 3525 4397 
L 1831 0 
L 1172 0 
L 2766 4134 
L 525 4134 
L 525 4666 
z
" transform="scale(0.015625)"/>
       </defs>
       <use xlink:href="#DejaVuSans-30"/>
       <use xlink:href="#DejaVuSans-2e" x="63.623047"/>
       <use xlink:href="#DejaVuSans-37" x="95.410156"/>
       <use xlink:href="#DejaVuSans-35" x="159.033203"/>
      </g>
     </g>
    </g>
    <g id="ytick_3">
     <g id="line2d_35">
      <path d="M 90 71.856963 
L 648 71.856963 
" clip-path="url(#p2335841b52)" style="fill: none; stroke: #b0b0b0; stroke-width: 0.8; stroke-linecap: square"/>
     </g>
     <g id="line2d_36">
      <g>
       <use xlink:href="#m059c27144b" x="90" y="71.856963" style="stroke: #000000; stroke-width: 0.8"/>
      </g>
     </g>
     <g id="text_7">
      <!-- 1.00 -->
      <g transform="translate(60.734375 75.656181)scale(0.1 -0.1)">
       <use xlink:href="#DejaVuSans-31"/>
       <use xlink:href="#DejaVuSans-2e" x="63.623047"/>
       <use xlink:href="#DejaVuSans-30" x="95.410156"/>
       <use xlink:href="#DejaVuSans-30" x="159.033203"/>
      </g>
     </g>
    </g>
    <g id="ytick_4">
     <g id="line2d_37">
      <path d="M 90 48.17462 
L 648 48.17462 
" clip-path="url(#p2335841b52)" style="fill: none; stroke: #b0b0b0; stroke-width: 0.8; stroke-linecap: square"/>
     </g>
     <g id="line2d_38">
      <g>
       <use xlink:href="#m059c27144b" x="90" y="48.17462" style="stroke: #000000; stroke-width: 0.8"/>
      </g>
     </g>
     <g id="text_8">
      <!-- 1.25 -->
      <g transform="translate(60.734375 51.973839)scale(0.1 -0.1)">
       <use xlink:href="#DejaVuSans-31"/>
       <use xlink:href="#DejaVuSans-2e" x="63.623047"/>
       <use xlink:href="#DejaVuSans-32" x="95.410156"/>
       <use xlink:href="#DejaVuSans-35" x="159.033203"/>
      </g>
     </g>
    </g>
    <g id="text_9">
     <!-- Encode time (ratio) -->
     <g transform="translate(54.654687 136.437406)rotate(-90)scale(0.1 -0.1)">
      <defs>
       <path id="DejaVuSans-45" d="M 628 4666 
L 3578 4666 
L 3578 4134 
L 1259 4134 
L 1259 2753 
L 3481 2753 
L 3481 2222 
L 1259 2222 
L 1259 531 
L 3634 531 
L 3634 0 
L 628 0 
L 628 4666 
z
" transform="scale(0.015625)"/>
       <path id="DejaVuSans-6e" d="M 3513 2113 
L 3513 0 
L 2938 0 
L 2938 2094 
Q 2938 2591 2744 2837 
Q 2550 3084 2163 3084 
Q 1697 3084 1428 2787 
Q 1159 2491 1159 1978 
L 1159 0 
L 581 0 
L 581 3500 
L 1159 3500 
L 1159 2956 
Q 1366 3272 1645 3428 
Q 1925 3584 2291 3584 
Q 2894 3584 3203 3211 
Q 3513 2838 3513 2113 
z
" transform="scale(0.015625)"/>
       <path id="DejaVuSans-63" d="M 3122 3366 
L 3122 2828 
Q 2878 2963 2633 3030 
Q 2388 3097 2138 3097 
Q 1578 3097 1268 2742 
Q 959 2388 959 1747 
Q 959 1106 1268 751 
Q 1578 397 2138 397 
Q 2388 397 2633 464 
Q 2878 531 3122 666 
L 3122 134 
Q 2881 22 2623 -34 
Q 2366 -91 2075 -91 
Q 1284 -91 818 406 
Q 353 903 353 1747 
Q 353 2603 823 3093 
Q 1294 3584 2113 3584 
Q 2378 3584 2631 3529 
Q 2884 3475 3122 3366 
z
" transform="scale(0.015625)"/>
       <path id="DejaVuSans-6f" d="M 1959 3097 
Q 1497 3097 1228 2736 
Q 959 2375 959 1747 
Q 959 1119 1226 758 
Q 1494 397 1959 397 
Q 2419 397 2687 759 
Q 2956 1122 2956 1747 
Q 2956 2369 2687 2733 
Q 2419 3097 1959 3097 
z
M 1959 3584 
Q 2709 3584 3137 3096 
Q 3566 2609 3566 1747 
Q 3566 888 3137 398 
Q 2709 -91 1959 -91 
Q 1206 -91 779 398 
Q 353 888 353 1747 
Q 353 2609 779 3096 
Q 1206 3584 1959 3584 
z
" transform="scale(0.015625)"/>
       <path id="DejaVuSans-64" d="M 2906 2969 
L 2906 4863 
L 3481 4863 
L 3481 0 
L 2906 0 
L 2906 525 
Q 2725 213 2448 61 
Q 2172 -91 1784 -91 
Q 1150 -91 751 415 
Q 353 922 353 1747 
Q 353 2572 751 3078 
Q 1150 3584 1784 3584 
Q 2172 3584 2448 3432 
Q 2725 3281 2906 2969 
z
M 947 1747 
Q 947 1113 1208 752 
Q 1469 391 1925 391 
Q 2381 391 2643 752 
Q 2906 1113 2906 1747 
Q 2906 2381 2643 2742 
Q 2381 3103 1925 3103 
Q 1469 3103 1208 2742 
Q 947 2381 947 1747 
z
" transform="scale(0.015625)"/>
       <path id="DejaVuSans-74" d="M 1172 4494 
L 1172 3500 
L 2356 3500 
L 2356 3053 
L 1172 3053 
L 1172 1153 
Q 1172 725 1289 603 
Q 1406 481 1766 481 
L 2356 481 
L 2356 0 
L 1766 0 
Q 1100 0 847 248 
Q 594 497 594 1153 
L 594 3053 
L 172 3053 
L 172 3500 
L 594 3500 
L 594 4494 
L 1172 4494 
z
" transform="scale(0.015625)"/>
       <path id="DejaVuSans-6d" d="M 3328 2828 
Q 3544 3216 3844 3400 
Q 4144 3584 4550 3584 
Q 5097 3584 5394 3201 
Q 5691 2819 5691 2113 
L 5691 0 
L 5113 0 
L 5113 2094 
Q 5113 2597 4934 2840 
Q 4756 3084 4391 3084 
Q 3944 3084 3684 2787 
Q 3425 2491 3425 1978 
L 3425 0 
L 2847 0 
L 2847 2094 
Q 2847 2600 2669 2842 
Q 2491 3084 2119 3084 
Q 1678 3084 1418 2786 
Q 1159 2488 1159 1978 
L 1159 0 
L 581 0 
L 581 3500 
L 1159 3500 
L 1159 2956 
Q 1356 3278 1631 3431 
Q 1906 3584 2284 3584 
Q 2666 3584 2933 3390 
Q 3200 3197 3328 2828 
z
" transform="scale(0.015625)"/>
       <path id="DejaVuSans-72" d="M 2631 2963 
Q 2534 3019 2420 3045 
Q 2306 3072 2169 3072 
Q 1681 3072 1420 2755 
Q 1159 2438 1159 1844 
L 1159 0 
L 581 0 
L 581 3500 
L 1159 3500 
L 1159 2956 
Q 1341 3275 1631 3429 
Q 1922 3584 2338 3584 
Q 2397 3584 2469 3576 
Q 2541 3569 2628 3553 
L 2631 2963 
z
" transform="scale(0.015625)"/>
       <path id="DejaVuSans-61" d="M 2194 1759 
Q 1497 1759 1228 1600 
Q 959 1441 959 1056 
Q 959 750 1161 570 
Q 1363 391 1709 391 
Q 2188 391 2477 730 
Q 2766 1069 2766 1631 
L 2766 1759 
L 2194 1759 
z
M 3341 1997 
L 3341 0 
L 2766 0 
L 2766 531 
Q 2569 213 2275 61 
Q 1981 -91 1556 -91 
Q 1019 -91 701 211 
Q 384 513 384 1019 
Q 384 1609 779 1909 
Q 1175 2209 1959 2209 
L 2766 2209 
L 2766 2266 
Q 2766 2663 2505 2880 
Q 2244 3097 1772 3097 
Q 1472 3097 1187 3025 
Q 903 2953 641 2809 
L 641 3341 
Q 956 3463 1253 3523 
Q 1550 3584 1831 3584 
Q 2591 3584 2966 3190 
Q 3341 2797 3341 1997 
z
" transform="scale(0.015625)"/>
      </defs>
      <use xlink:href="#DejaVuSans-45"/>
      <use xlink:href="#DejaVuSans-6e" x="63.183594"/>
      <use xlink:href="#DejaVuSans-63" x="126.5625"/>
      <use xlink:href="#DejaVuSans-6f" x="181.542969"/>
      <use xlink:href="#DejaVuSans-64" x="242.724609"/>
      <use xlink:href="#DejaVuSans-65" x="306.201172"/>
      <use xlink:href="#DejaVuSans-20" x="367.724609"/>
      <use xlink:href="#DejaVuSans-74" x="399.511719"/>
      <use xlink:href="#DejaVuSans-69" x="438.720703"/>
      <use xlink:href="#DejaVuSans-6d" x="466.503906"/>
      <use xlink:href="#DejaVuSans-65" x="563.916016"/>
      <use xlink:href="#DejaVuSans-20" x="625.439453"/>
      <use xlink:href="#DejaVuSans-28" x="657.226562"/>
      <use xlink:href="#DejaVuSans-72" x="696.240234"/>
      <use xlink:href="#DejaVuSans-61" x="737.353516"/>
      <use xlink:href="#DejaVuSans-74" x="798.632812"/>
      <use xlink:href="#DejaVuSans-69" x="837.841797"/>
      <use xlink:href="#DejaVuSans-6f" x="865.625"/>
      <use xlink:href="#DejaVuSans-29" x="926.806641"/>
     </g>
    </g>
   </g>
   <g id="line2d_39">
    <path d="M 115.363636 71.856963 
L 125.293172 71.856963 
L 135.224169 71.856963 
L 145.15264 71.856963 
L 155.077552 71.856963 
L 164.998156 71.856963 
L 174.916324 71.856963 
L 184.830331 71.856963 
L 194.741239 71.856963 
L 204.647421 71.856963 
L 214.54926 71.856963 
L 224.446666 71.856963 
L 234.339827 71.856963 
L 244.229245 71.856963 
L 254.114098 71.856963 
L 263.994106 71.856963 
L 273.869057 71.856963 
L 283.739435 71.856963 
L 293.60461 71.856963 
L 303.465292 71.856963 
L 313.32069 71.856963 
L 323.17107 71.856963 
L 333.016436 71.856963 
L 342.856771 71.856963 
L 352.692013 71.856963 
L 362.522702 71.856963 
L 381.088042 71.856963 
L 399.625657 71.856963 
L 418.209883 71.856963 
L 436.794108 71.856963 
L 455.378334 71.856963 
L 473.962559 71.856963 
L 492.546785 71.856963 
L 511.13101 71.856963 
L 529.715236 71.856963 
L 548.299462 71.856963 
L 566.883687 71.856963 
L 585.467913 71.856963 
L 604.052138 71.856963 
L 622.636364 71.856963 
" clip-path="url(#p2335841b52)" style="fill: none; stroke: #1f77b4; stroke-width: 1.5; stroke-linecap: square"/>
   </g>
   <g id="line2d_40">
    <path d="M 115.363636 93.983511 
L 125.293172 106.684118 
L 135.224169 98.793342 
L 145.15264 109.0034 
L 155.077552 85.331243 
L 164.998156 98.283568 
L 174.916324 95.09303 
L 184.830331 92.383707 
L 194.741239 90.698884 
L 204.647421 100.95837 
L 214.54926 94.11318 
L 224.446666 94.828079 
L 234.339827 94.649505 
L 244.229245 95.36052 
L 254.114098 87.863731 
L 263.994106 105.122283 
L 273.869057 97.239365 
L 283.739435 95.42048 
L 293.60461 93.342812 
L 303.465292 95.333087 
L 313.32069 95.701146 
L 323.17107 97.517963 
L 333.016436 93.27532 
L 342.856771 91.9065 
L 352.692013 95.130859 
L 362.522702 90.324101 
L 381.088042 87.992664 
L 399.625657 85.519942 
L 418.209883 92.767996 
L 436.794108 100.656612 
L 455.378334 100.707972 
L 473.962559 97.817753 
L 492.546785 94.920115 
L 511.13101 100.487166 
L 529.715236 95.987805 
L 548.299462 98.558046 
L 566.883687 90.523425 
L 585.467913 98.070588 
L 604.052138 89.807929 
L 622.636364 100.169955 
" clip-path="url(#p2335841b52)" style="fill: none; stroke: #ff7f0e; stroke-width: 1.5; stroke-linecap: square"/>
   </g>
   <g id="line2d_41">
    <path d="M 115.363636 119.536428 
L 125.293172 129.433535 
L 135.224169 129.782904 
L 145.15264 130.867712 
L 155.077552 40.609636 
L 164.998156 64.700955 
L 174.916324 128.918013 
L 184.830331 128.048413 
L 194.741239 128.738297 
L 204.647421 130.658075 
L 214.54926 97.956433 
L 224.446666 98.706134 
L 234.339827 104.412814 
L 244.229245 104.707439 
L 254.114098 114.514391 
L 263.994106 116.819268 
L 273.869057 92.436796 
L 283.739435 103.028862 
L 293.60461 122.148885 
L 303.465292 123.814131 
L 313.32069 113.193784 
L 323.17107 121.893119 
L 333.016436 118.698864 
L 342.856771 121.11223 
L 352.692013 122.498049 
L 362.522702 117.299701 
L 381.088042 120.838099 
L 399.625657 110.608313 
L 418.209883 121.649328 
L 436.794108 64.583677 
L 455.378334 135.682364 
L 473.962559 120.888321 
L 492.546785 131.297307 
L 511.13101 134.948496 
L 529.715236 118.895177 
L 548.299462 117.213589 
L 566.883687 109.61032 
L 585.467913 123.965118 
L 604.052138 119.027594 
L 622.636364 116.012459 
" clip-path="url(#p2335841b52)" style="fill: none; stroke: #2ca02c; stroke-width: 1.5; stroke-linecap: square"/>
   </g>
   <g id="line2d_42">
    <path d="M 115.363636 119.216076 
L 125.293172 125.851677 
L 135.224169 119.338457 
L 145.15264 131.577753 
L 155.077552 91.781971 
L 164.998156 128.066708 
L 174.916324 126.739389 
L 184.830331 126.790027 
L 194.741239 122.706664 
L 204.647421 122.264039 
L 214.54926 115.771733 
L 224.446666 94.309258 
L 234.339827 93.135138 
L 244.229245 89.562005 
L 254.114098 111.353968 
L 263.994106 114.571751 
L 273.869057 87.428952 
L 283.739435 97.116919 
L 293.60461 112.932331 
L 303.465292 120.079556 
L 313.32069 115.042108 
L 323.17107 119.156189 
L 333.016436 117.148159 
L 342.856771 120.365549 
L 352.692013 121.497546 
L 362.522702 115.484618 
L 381.088042 115.834129 
L 399.625657 109.892853 
L 418.209883 64.696135 
L 436.794108 131.918424 
L 455.378334 120.078411 
L 473.962559 132.463194 
L 492.546785 116.935294 
L 511.13101 123.872578 
L 529.715236 133.519978 
L 548.299462 106.068886 
L 566.883687 121.567743 
L 585.467913 123.614704 
L 604.052138 105.894159 
L 622.636364 114.059176 
" clip-path="url(#p2335841b52)" style="fill: none; stroke: #d62728; stroke-width: 1.5; stroke-linecap: square"/>
   </g>
   <g id="line2d_43">
    <path d="M 115.363636 112.073628 
L 125.293172 125.391886 
L 135.224169 122.375495 
L 145.15264 130.429931 
L 155.077552 114.851495 
L 164.998156 122.886657 
L 174.916324 123.839735 
L 184.830331 120.280137 
L 194.741239 118.81171 
L 204.647421 121.436244 
L 214.54926 118.521164 
L 224.446666 121.582171 
L 234.339827 98.989879 
L 244.229245 105.983545 
L 254.114098 105.068692 
L 263.994106 127.869657 
L 273.869057 112.378611 
L 283.739435 110.939773 
L 293.60461 104.149964 
L 303.465292 113.749184 
L 313.32069 113.350987 
L 323.17107 118.601498 
L 333.016436 113.034385 
L 342.856771 111.496854 
L 352.692013 122.193828 
L 362.522702 118.26085 
L 381.088042 117.212165 
L 399.625657 112.994729 
L 418.209883 98.539213 
L 436.794108 124.548841 
L 455.378334 128.078644 
L 473.962559 122.994841 
L 492.546785 106.843667 
L 511.13101 112.186417 
L 529.715236 110.020134 
L 548.299462 110.354114 
L 566.883687 106.368473 
L 585.467913 98.574851 
L 604.052138 92.180626 
L 622.636364 98.713774 
" clip-path="url(#p2335841b52)" style="fill: none; stroke: #9467bd; stroke-width: 1.5; stroke-linecap: square"/>
   </g>
   <g id="line2d_44">
    <path d="M 115.363636 52.613579 
L 125.293172 94.982013 
L 135.224169 84.98897 
L 145.15264 94.33386 
L 155.077552 74.172344 
L 164.998156 81.521024 
L 174.916324 79.076325 
L 184.830331 75.34793 
L 194.741239 76.558744 
L 204.647421 84.346216 
L 214.54926 76.948048 
L 224.446666 77.063889 
L 234.339827 78.878733 
L 244.229245 82.513555 
L 254.114098 84.818303 
L 263.994106 87.162107 
L 273.869057 81.137543 
L 283.739435 77.477752 
L 293.60461 79.636277 
L 303.465292 81.04395 
L 313.32069 81.759487 
L 323.17107 83.236597 
L 333.016436 68.997785 
L 342.856771 79.207587 
L 352.692013 86.493101 
L 362.522702 82.221766 
L 381.088042 86.152679 
L 399.625657 61.635975 
L 418.209883 80.914019 
L 436.794108 87.4799 
L 455.378334 93.889507 
L 473.962559 80.844218 
L 492.546785 83.345043 
L 511.13101 87.653622 
L 529.715236 83.079177 
L 548.299462 85.33106 
L 566.883687 80.87671 
L 585.467913 88.321979 
L 604.052138 75.760434 
L 622.636364 87.843148 
" clip-path="url(#p2335841b52)" style="fill: none; stroke: #8c564b; stroke-width: 1.5; stroke-linecap: square"/>
   </g>
   <g id="patch_3">
    <path d="M 90 140.436 
L 90 35.856 
" style="fill: none; stroke: #000000; stroke-width: 0.8; stroke-linejoin: miter; stroke-linecap: square"/>
   </g>
   <g id="patch_4">
    <path d="M 648 140.436 
L 648 35.856 
" style="fill: none; stroke: #000000; stroke-width: 0.8; stroke-linejoin: miter; stroke-linecap: square"/>
   </g>
   <g id="patch_5">
    <path d="M 90 140.436 
L 648 140.436 
" style="fill: none; stroke: #000000; stroke-width: 0.8; stroke-linejoin: miter; stroke-linecap: square"/>
   </g>
   <g id="patch_6">
    <path d="M 90 35.856 
L 648 35.856 
" style="fill: none; stroke: #000000; stroke-width: 0.8; stroke-linejoin: miter; stroke-linecap: square"/>
   </g>
   <g id="legend_1">
    <g id="patch_7">
     <path d="M 161.690625 33.47185 
L 576.309375 33.47185 
Q 578.309375 33.47185 578.309375 31.47185 
L 578.309375 3.1156 
Q 578.309375 1.1156 576.309375 1.1156 
L 161.690625 1.1156 
Q 159.690625 1.1156 159.690625 3.1156 
L 159.690625 31.47185 
Q 159.690625 33.47185 161.690625 33.47185 
z
" style="fill: #ffffff; opacity: 0.8; stroke: #cccccc; stroke-linejoin: miter"/>
    </g>
    <g id="line2d_45">
     <path d="M 163.690625 9.214038 
L 173.690625 9.214038 
L 183.690625 9.214038 
" style="fill: none; stroke: #1f77b4; stroke-width: 1.5; stroke-linecap: square"/>
    </g>
    <g id="text_10">
     <!-- JSON -->
     <g transform="translate(191.690625 12.714038)scale(0.1 -0.1)">
      <use xlink:href="#DejaVuSans-4a"/>
      <use xlink:href="#DejaVuSans-53" x="29.492188"/>
      <use xlink:href="#DejaVuSans-4f" x="92.96875"/>
      <use xlink:href="#DejaVuSans-4e" x="171.679688"/>
     </g>
    </g>
    <g id="line2d_46">
     <path d="M 163.690625 23.892163 
L 173.690625 23.892163 
L 183.690625 23.892163 
" style="fill: none; stroke: #ff7f0e; stroke-width: 1.5; stroke-linecap: square"/>
    </g>
    <g id="text_11">
     <!-- JSON (unmapped) -->
     <g transform="translate(191.690625 27.392163)scale(0.1 -0.1)">
      <defs>
       <path id="DejaVuSans-75" d="M 544 1381 
L 544 3500 
L 1119 3500 
L 1119 1403 
Q 1119 906 1312 657 
Q 1506 409 1894 409 
Q 2359 409 2629 706 
Q 2900 1003 2900 1516 
L 2900 3500 
L 3475 3500 
L 3475 0 
L 2900 0 
L 2900 538 
Q 2691 219 2414 64 
Q 2138 -91 1772 -91 
Q 1169 -91 856 284 
Q 544 659 544 1381 
z
M 1991 3584 
L 1991 3584 
z
" transform="scale(0.015625)"/>
       <path id="DejaVuSans-70" d="M 1159 525 
L 1159 -1331 
L 581 -1331 
L 581 3500 
L 1159 3500 
L 1159 2969 
Q 1341 3281 1617 3432 
Q 1894 3584 2278 3584 
Q 2916 3584 3314 3078 
Q 3713 2572 3713 1747 
Q 3713 922 3314 415 
Q 2916 -91 2278 -91 
Q 1894 -91 1617 61 
Q 1341 213 1159 525 
z
M 3116 1747 
Q 3116 2381 2855 2742 
Q 2594 3103 2138 3103 
Q 1681 3103 1420 2742 
Q 1159 2381 1159 1747 
Q 1159 1113 1420 752 
Q 1681 391 2138 391 
Q 2594 391 2855 752 
Q 3116 1113 3116 1747 
z
" transform="scale(0.015625)"/>
      </defs>
      <use xlink:href="#DejaVuSans-4a"/>
      <use xlink:href="#DejaVuSans-53" x="29.492188"/>
      <use xlink:href="#DejaVuSans-4f" x="92.96875"/>
      <use xlink:href="#DejaVuSans-4e" x="171.679688"/>
      <use xlink:href="#DejaVuSans-20" x="246.484375"/>
      <use xlink:href="#DejaVuSans-28" x="278.271484"/>
      <use xlink:href="#DejaVuSans-75" x="317.285156"/>
      <use xlink:href="#DejaVuSans-6e" x="380.664062"/>
      <use xlink:href="#DejaVuSans-6d" x="444.042969"/>
      <use xlink:href="#DejaVuSans-61" x="541.455078"/>
      <use xlink:href="#DejaVuSans-70" x="602.734375"/>
      <use xlink:href="#DejaVuSans-70" x="666.210938"/>
      <use xlink:href="#DejaVuSans-65" x="729.6875"/>
      <use xlink:href="#DejaVuSans-64" x="791.210938"/>
      <use xlink:href="#DejaVuSans-29" x="854.6875"/>
     </g>
    </g>
    <g id="line2d_47">
     <path d="M 301.065625 9.214038 
L 311.065625 9.214038 
L 321.065625 9.214038 
" style="fill: none; stroke: #2ca02c; stroke-width: 1.5; stroke-linecap: square"/>
    </g>
    <g id="text_12">
     <!-- JSBIN -->
     <g transform="translate(329.065625 12.714038)scale(0.1 -0.1)">
      <defs>
       <path id="DejaVuSans-49" d="M 628 4666 
L 1259 4666 
L 1259 0 
L 628 0 
L 628 4666 
z
" transform="scale(0.015625)"/>
      </defs>
      <use xlink:href="#DejaVuSans-4a"/>
      <use xlink:href="#DejaVuSans-53" x="29.492188"/>
      <use xlink:href="#DejaVuSans-42" x="92.96875"/>
      <use xlink:href="#DejaVuSans-49" x="161.572266"/>
      <use xlink:href="#DejaVuSans-4e" x="191.064453"/>
     </g>
    </g>
    <g id="line2d_48">
     <path d="M 301.065625 23.892163 
L 311.065625 23.892163 
L 321.065625 23.892163 
" style="fill: none; stroke: #d62728; stroke-width: 1.5; stroke-linecap: square"/>
    </g>
    <g id="text_13">
     <!-- JSBIN (optional) -->
     <g transform="translate(329.065625 27.392163)scale(0.1 -0.1)">
      <defs>
       <path id="DejaVuSans-6c" d="M 603 4863 
L 1178 4863 
L 1178 0 
L 603 0 
L 603 4863 
z
" transform="scale(0.015625)"/>
      </defs>
      <use xlink:href="#DejaVuSans-4a"/>
      <use xlink:href="#DejaVuSans-53" x="29.492188"/>
      <use xlink:href="#DejaVuSans-42" x="92.96875"/>
      <use xlink:href="#DejaVuSans-49" x="161.572266"/>
      <use xlink:href="#DejaVuSans-4e" x="191.064453"/>
      <use xlink:href="#DejaVuSans-20" x="265.869141"/>
      <use xlink:href="#DejaVuSans-28" x="297.65625"/>
      <use xlink:href="#DejaVuSans-6f" x="336.669922"/>
      <use xlink:href="#DejaVuSans-70" x="397.851562"/>
      <use xlink:href="#DejaVuSans-74" x="461.328125"/>
      <use xlink:href="#DejaVuSans-69" x="500.537109"/>
      <use xlink:href="#DejaVuSans-6f" x="528.320312"/>
      <use xlink:href="#DejaVuSans-6e" x="589.501953"/>
      <use xlink:href="#DejaVuSans-61" x="652.880859"/>
      <use xlink:href="#DejaVuSans-6c" x="714.160156"/>
      <use xlink:href="#DejaVuSans-29" x="741.943359"/>
     </g>
    </g>
    <g id="line2d_49">
     <path d="M 427.165625 9.214038 
L 437.165625 9.214038 
L 447.165625 9.214038 
" style="fill: none; stroke: #9467bd; stroke-width: 1.5; stroke-linecap: square"/>
    </g>
    <g id="text_14">
     <!-- JSBIN (unmapped) -->
     <g transform="translate(455.165625 12.714038)scale(0.1 -0.1)">
      <use xlink:href="#DejaVuSans-4a"/>
      <use xlink:href="#DejaVuSans-53" x="29.492188"/>
      <use xlink:href="#DejaVuSans-42" x="92.96875"/>
      <use xlink:href="#DejaVuSans-49" x="161.572266"/>
      <use xlink:href="#DejaVuSans-4e" x="191.064453"/>
      <use xlink:href="#DejaVuSans-20" x="265.869141"/>
      <use xlink:href="#DejaVuSans-28" x="297.65625"/>
      <use xlink:href="#DejaVuSans-75" x="336.669922"/>
      <use xlink:href="#DejaVuSans-6e" x="400.048828"/>
      <use xlink:href="#DejaVuSans-6d" x="463.427734"/>
      <use xlink:href="#DejaVuSans-61" x="560.839844"/>
      <use xlink:href="#DejaVuSans-70" x="622.119141"/>
      <use xlink:href="#DejaVuSans-70" x="685.595703"/>
      <use xlink:href="#DejaVuSans-65" x="749.072266"/>
      <use xlink:href="#DejaVuSans-64" x="810.595703"/>
      <use xlink:href="#DejaVuSans-29" x="874.072266"/>
     </g>
    </g>
    <g id="line2d_50">
     <path d="M 427.165625 23.892163 
L 437.165625 23.892163 
L 447.165625 23.892163 
" style="fill: none; stroke: #8c564b; stroke-width: 1.5; stroke-linecap: square"/>
    </g>
    <g id="text_15">
     <!-- JSBIN JSON (unmapped) -->
     <g transform="translate(455.165625 27.392163)scale(0.1 -0.1)">
      <use xlink:href="#DejaVuSans-4a"/>
      <use xlink:href="#DejaVuSans-53" x="29.492188"/>
      <use xlink:href="#DejaVuSans-42" x="92.96875"/>
      <use xlink:href="#DejaVuSans-49" x="161.572266"/>
      <use xlink:href="#DejaVuSans-4e" x="191.064453"/>
      <use xlink:href="#DejaVuSans-20" x="265.869141"/>
      <use xlink:href="#DejaVuSans-4a" x="297.65625"/>
      <use xlink:href="#DejaVuSans-53" x="327.148438"/>
      <use xlink:href="#DejaVuSans-4f" x="390.625"/>
      <use xlink:href="#DejaVuSans-4e" x="469.335938"/>
      <use xlink:href="#DejaVuSans-20" x="544.140625"/>
      <use xlink:href="#DejaVuSans-28" x="575.927734"/>
      <use xlink:href="#DejaVuSans-75" x="614.941406"/>
      <use xlink:href="#DejaVuSans-6e" x="678.320312"/>
      <use xlink:href="#DejaVuSans-6d" x="741.699219"/>
      <use xlink:href="#DejaVuSans-61" x="839.111328"/>
      <use xlink:href="#DejaVuSans-70" x="900.390625"/>
      <use xlink:href="#DejaVuSans-70" x="963.867188"/>
      <use xlink:href="#DejaVuSans-65" x="1027.34375"/>
      <use xlink:href="#DejaVuSans-64" x="1088.867188"/>
      <use xlink:href="#DejaVuSans-29" x="1152.34375"/>
     </g>
    </g>
   </g>
  </g>
  <g id="axes_2">
   <g id="patch_8">
    <path d="M 90 265.932 
L 648 265.932 
L 648 161.352 
L 90 161.352 
z
" style="fill: #ffffff"/>
   </g>
   <g id="matplotlib.axis_3">
    <g id="xtick_28">
     <g id="line2d_51">
      <path d="M 166.951075 265.932 
L 166.951075 161.352 
" clip-path="url(#p9b4354d613)" style="fill: none; stroke: #b0b0b0; stroke-width: 0.8; stroke-linecap: square"/>
     </g>
     <g id="line2d_52">
      <g>
       <use xlink:href="#mcc5188603a" x="166.951075" y="265.932" style="stroke: #000000; stroke-width: 0.8"/>
      </g>
     </g>
     <g id="text_16">
      <!-- $\mathdefault{10^{0}}$ -->
      <g transform="translate(158.151075 280.530438)scale(0.1 -0.1)">
       <use xlink:href="#DejaVuSans-31" transform="translate(0 0.765625)"/>
       <use xlink:href="#DejaVuSans-30" transform="translate(63.623047 0.765625)"/>
       <use xlink:href="#DejaVuSans-30" transform="translate(128.203125 39.046875)scale(0.7)"/>
      </g>
     </g>
    </g>
    <g id="xtick_29">
     <g id="line2d_53">
      <path d="M 358.718932 265.932 
L 358.718932 161.352 
" clip-path="url(#p9b4354d613)" style="fill: none; stroke: #b0b0b0; stroke-width: 0.8; stroke-linecap: square"/>
     </g>
     <g id="line2d_54">
      <g>
       <use xlink:href="#mcc5188603a" x="358.718932" y="265.932" style="stroke: #000000; stroke-width: 0.8"/>
      </g>
     </g>
     <g id="text_17">
      <!-- $\mathdefault{10^{1}}$ -->
      <g transform="translate(349.918932 280.530438)scale(0.1 -0.1)">
       <use xlink:href="#DejaVuSans-31" transform="translate(0 0.684375)"/>
       <use xlink:href="#DejaVuSans-30" transform="translate(63.623047 0.684375)"/>
       <use xlink:href="#DejaVuSans-31" transform="translate(128.203125 38.965625)scale(0.7)"/>
      </g>
     </g>
    </g>
    <g id="xtick_30">
     <g id="line2d_55">
      <path d="M 550.486789 265.932 
L 550.486789 161.352 
" clip-path="url(#p9b4354d613)" style="fill: none; stroke: #b0b0b0; stroke-width: 0.8; stroke-linecap: square"/>
     </g>
     <g id="line2d_56">
      <g>
       <use xlink:href="#mcc5188603a" x="550.486789" y="265.932" style="stroke: #000000; stroke-width: 0.8"/>
      </g>
     </g>
     <g id="text_18">
      <!-- $\mathdefault{10^{2}}$ -->
      <g transform="translate(541.686789 280.530438)scale(0.1 -0.1)">
       <use xlink:href="#DejaVuSans-31" transform="translate(0 0.765625)"/>
       <use xlink:href="#DejaVuSans-30" transform="translate(63.623047 0.765625)"/>
       <use xlink:href="#DejaVuSans-32" transform="translate(128.203125 39.046875)scale(0.7)"/>
      </g>
     </g>
    </g>
    <g id="xtick_31">
     <g id="line2d_57">
      <g>
       <use xlink:href="#mf09b9be7d6" x="90.638972" y="265.932" style="stroke: #000000; stroke-width: 0.6"/>
      </g>
     </g>
    </g>
    <g id="xtick_32">
     <g id="line2d_58">
      <g>
       <use xlink:href="#mf09b9be7d6" x="109.223198" y="265.932" style="stroke: #000000; stroke-width: 0.6"/>
      </g>
     </g>
    </g>
    <g id="xtick_33">
     <g id="line2d_59">
      <g>
       <use xlink:href="#mf09b9be7d6" x="124.407616" y="265.932" style="stroke: #000000; stroke-width: 0.6"/>
      </g>
     </g>
    </g>
    <g id="xtick_34">
     <g id="line2d_60">
      <g>
       <use xlink:href="#mf09b9be7d6" x="137.245858" y="265.932" style="stroke: #000000; stroke-width: 0.6"/>
      </g>
     </g>
    </g>
    <g id="xtick_35">
     <g id="line2d_61">
      <g>
       <use xlink:href="#mf09b9be7d6" x="148.36685" y="265.932" style="stroke: #000000; stroke-width: 0.6"/>
      </g>
     </g>
    </g>
    <g id="xtick_36">
     <g id="line2d_62">
      <g>
       <use xlink:href="#mf09b9be7d6" x="158.176259" y="265.932" style="stroke: #000000; stroke-width: 0.6"/>
      </g>
     </g>
    </g>
    <g id="xtick_37">
     <g id="line2d_63">
      <g>
       <use xlink:href="#mf09b9be7d6" x="224.678952" y="265.932" style="stroke: #000000; stroke-width: 0.6"/>
      </g>
     </g>
    </g>
    <g id="xtick_38">
     <g id="line2d_64">
      <g>
       <use xlink:href="#mf09b9be7d6" x="258.447596" y="265.932" style="stroke: #000000; stroke-width: 0.6"/>
      </g>
     </g>
    </g>
    <g id="xtick_39">
     <g id="line2d_65">
      <g>
       <use xlink:href="#mf09b9be7d6" x="282.406829" y="265.932" style="stroke: #000000; stroke-width: 0.6"/>
      </g>
     </g>
    </g>
    <g id="xtick_40">
     <g id="line2d_66">
      <g>
       <use xlink:href="#mf09b9be7d6" x="300.991055" y="265.932" style="stroke: #000000; stroke-width: 0.6"/>
      </g>
     </g>
    </g>
    <g id="xtick_41">
     <g id="line2d_67">
      <g>
       <use xlink:href="#mf09b9be7d6" x="316.175473" y="265.932" style="stroke: #000000; stroke-width: 0.6"/>
      </g>
     </g>
    </g>
    <g id="xtick_42">
     <g id="line2d_68">
      <g>
       <use xlink:href="#mf09b9be7d6" x="329.013715" y="265.932" style="stroke: #000000; stroke-width: 0.6"/>
      </g>
     </g>
    </g>
    <g id="xtick_43">
     <g id="line2d_69">
      <g>
       <use xlink:href="#mf09b9be7d6" x="340.134707" y="265.932" style="stroke: #000000; stroke-width: 0.6"/>
      </g>
     </g>
    </g>
    <g id="xtick_44">
     <g id="line2d_70">
      <g>
       <use xlink:href="#mf09b9be7d6" x="349.944116" y="265.932" style="stroke: #000000; stroke-width: 0.6"/>
      </g>
     </g>
    </g>
    <g id="xtick_45">
     <g id="line2d_71">
      <g>
       <use xlink:href="#mf09b9be7d6" x="416.446809" y="265.932" style="stroke: #000000; stroke-width: 0.6"/>
      </g>
     </g>
    </g>
    <g id="xtick_46">
     <g id="line2d_72">
      <g>
       <use xlink:href="#mf09b9be7d6" x="450.215453" y="265.932" style="stroke: #000000; stroke-width: 0.6"/>
      </g>
     </g>
    </g>
    <g id="xtick_47">
     <g id="line2d_73">
      <g>
       <use xlink:href="#mf09b9be7d6" x="474.174687" y="265.932" style="stroke: #000000; stroke-width: 0.6"/>
      </g>
     </g>
    </g>
    <g id="xtick_48">
     <g id="line2d_74">
      <g>
       <use xlink:href="#mf09b9be7d6" x="492.758912" y="265.932" style="stroke: #000000; stroke-width: 0.6"/>
      </g>
     </g>
    </g>
    <g id="xtick_49">
     <g id="line2d_75">
      <g>
       <use xlink:href="#mf09b9be7d6" x="507.94333" y="265.932" style="stroke: #000000; stroke-width: 0.6"/>
      </g>
     </g>
    </g>
    <g id="xtick_50">
     <g id="line2d_76">
      <g>
       <use xlink:href="#mf09b9be7d6" x="520.781572" y="265.932" style="stroke: #000000; stroke-width: 0.6"/>
      </g>
     </g>
    </g>
    <g id="xtick_51">
     <g id="line2d_77">
      <g>
       <use xlink:href="#mf09b9be7d6" x="531.902564" y="265.932" style="stroke: #000000; stroke-width: 0.6"/>
      </g>
     </g>
    </g>
    <g id="xtick_52">
     <g id="line2d_78">
      <g>
       <use xlink:href="#mf09b9be7d6" x="541.711973" y="265.932" style="stroke: #000000; stroke-width: 0.6"/>
      </g>
     </g>
    </g>
    <g id="xtick_53">
     <g id="line2d_79">
      <g>
       <use xlink:href="#mf09b9be7d6" x="608.214667" y="265.932" style="stroke: #000000; stroke-width: 0.6"/>
      </g>
     </g>
    </g>
    <g id="xtick_54">
     <g id="line2d_80">
      <g>
       <use xlink:href="#mf09b9be7d6" x="641.98331" y="265.932" style="stroke: #000000; stroke-width: 0.6"/>
      </g>
     </g>
    </g>
    <g id="text_19">
     <!-- JSON size (MB) -->
     <g transform="translate(332.155469 294.208563)scale(0.1 -0.1)">
      <use xlink:href="#DejaVuSans-4a"/>
      <use xlink:href="#DejaVuSans-53" x="29.492188"/>
      <use xlink:href="#DejaVuSans-4f" x="92.96875"/>
      <use xlink:href="#DejaVuSans-4e" x="171.679688"/>
      <use xlink:href="#DejaVuSans-20" x="246.484375"/>
      <use xlink:href="#DejaVuSans-73" x="278.271484"/>
      <use xlink:href="#DejaVuSans-69" x="330.371094"/>
      <use xlink:href="#DejaVuSans-7a" x="358.154297"/>
      <use xlink:href="#DejaVuSans-65" x="410.644531"/>
      <use xlink:href="#DejaVuSans-20" x="472.167969"/>
      <use xlink:href="#DejaVuSans-28" x="503.955078"/>
      <use xlink:href="#DejaVuSans-4d" x="542.96875"/>
      <use xlink:href="#DejaVuSans-42" x="629.248047"/>
      <use xlink:href="#DejaVuSans-29" x="697.851562"/>
     </g>
    </g>
   </g>
   <g id="matplotlib.axis_4">
    <g id="ytick_5">
     <g id="line2d_81">
      <path d="M 90 246.254656 
L 648 246.254656 
" clip-path="url(#p9b4354d613)" style="fill: none; stroke: #b0b0b0; stroke-width: 0.8; stroke-linecap: square"/>
     </g>
     <g id="line2d_82">
      <g>
       <use xlink:href="#m059c27144b" x="90" y="246.254656" style="stroke: #000000; stroke-width: 0.8"/>
      </g>
     </g>
     <g id="text_20">
      <!-- 0.25 -->
      <g transform="translate(60.734375 250.053875)scale(0.1 -0.1)">
       <use xlink:href="#DejaVuSans-30"/>
       <use xlink:href="#DejaVuSans-2e" x="63.623047"/>
       <use xlink:href="#DejaVuSans-32" x="95.410156"/>
       <use xlink:href="#DejaVuSans-35" x="159.033203"/>
      </g>
     </g>
    </g>
    <g id="ytick_6">
     <g id="line2d_83">
      <path d="M 90 224.913121 
L 648 224.913121 
" clip-path="url(#p9b4354d613)" style="fill: none; stroke: #b0b0b0; stroke-width: 0.8; stroke-linecap: square"/>
     </g>
     <g id="line2d_84">
      <g>
       <use xlink:href="#m059c27144b" x="90" y="224.913121" style="stroke: #000000; stroke-width: 0.8"/>
      </g>
     </g>
     <g id="text_21">
      <!-- 0.50 -->
      <g transform="translate(60.734375 228.71234)scale(0.1 -0.1)">
       <use xlink:href="#DejaVuSans-30"/>
       <use xlink:href="#DejaVuSans-2e" x="63.623047"/>
       <use xlink:href="#DejaVuSans-35" x="95.410156"/>
       <use xlink:href="#DejaVuSans-30" x="159.033203"/>
      </g>
     </g>
    </g>
    <g id="ytick_7">
     <g id="line2d_85">
      <path d="M 90 203.571586 
L 648 203.571586 
" clip-path="url(#p9b4354d613)" style="fill: none; stroke: #b0b0b0; stroke-width: 0.8; stroke-linecap: square"/>
     </g>
     <g id="line2d_86">
      <g>
       <use xlink:href="#m059c27144b" x="90" y="203.571586" style="stroke: #000000; stroke-width: 0.8"/>
      </g>
     </g>
     <g id="text_22">
      <!-- 0.75 -->
      <g transform="translate(60.734375 207.370805)scale(0.1 -0.1)">
       <use xlink:href="#DejaVuSans-30"/>
       <use xlink:href="#DejaVuSans-2e" x="63.623047"/>
       <use xlink:href="#DejaVuSans-37" x="95.410156"/>
       <use xlink:href="#DejaVuSans-35" x="159.033203"/>
      </g>
     </g>
    </g>
    <g id="ytick_8">
     <g id="line2d_87">
      <path d="M 90 182.230051 
L 648 182.230051 
" clip-path="url(#p9b4354d613)" style="fill: none; stroke: #b0b0b0; stroke-width: 0.8; stroke-linecap: square"/>
     </g>
     <g id="line2d_88">
      <g>
       <use xlink:href="#m059c27144b" x="90" y="182.230051" style="stroke: #000000; stroke-width: 0.8"/>
      </g>
     </g>
     <g id="text_23">
      <!-- 1.00 -->
      <g transform="translate(60.734375 186.02927)scale(0.1 -0.1)">
       <use xlink:href="#DejaVuSans-31"/>
       <use xlink:href="#DejaVuSans-2e" x="63.623047"/>
       <use xlink:href="#DejaVuSans-30" x="95.410156"/>
       <use xlink:href="#DejaVuSans-30" x="159.033203"/>
      </g>
     </g>
    </g>
    <g id="text_24">
     <!-- Decode time (ratio) -->
     <g transform="translate(54.654687 262.531844)rotate(-90)scale(0.1 -0.1)">
      <defs>
       <path id="DejaVuSans-44" d="M 1259 4147 
L 1259 519 
L 2022 519 
Q 2988 519 3436 956 
Q 3884 1394 3884 2338 
Q 3884 3275 3436 3711 
Q 2988 4147 2022 4147 
L 1259 4147 
z
M 628 4666 
L 1925 4666 
Q 3281 4666 3915 4102 
Q 4550 3538 4550 2338 
Q 4550 1131 3912 565 
Q 3275 0 1925 0 
L 628 0 
L 628 4666 
z
" transform="scale(0.015625)"/>
      </defs>
      <use xlink:href="#DejaVuSans-44"/>
      <use xlink:href="#DejaVuSans-65" x="77.001953"/>
      <use xlink:href="#DejaVuSans-63" x="138.525391"/>
      <use xlink:href="#DejaVuSans-6f" x="193.505859"/>
      <use xlink:href="#DejaVuSans-64" x="254.6875"/>
      <use xlink:href="#DejaVuSans-65" x="318.164062"/>
      <use xlink:href="#DejaVuSans-20" x="379.6875"/>
      <use xlink:href="#DejaVuSans-74" x="411.474609"/>
      <use xlink:href="#DejaVuSans-69" x="450.683594"/>
      <use xlink:href="#DejaVuSans-6d" x="478.466797"/>
      <use xlink:href="#DejaVuSans-65" x="575.878906"/>
      <use xlink:href="#DejaVuSans-20" x="637.402344"/>
      <use xlink:href="#DejaVuSans-28" x="669.189453"/>
      <use xlink:href="#DejaVuSans-72" x="708.203125"/>
      <use xlink:href="#DejaVuSans-61" x="749.316406"/>
      <use xlink:href="#DejaVuSans-74" x="810.595703"/>
      <use xlink:href="#DejaVuSans-69" x="849.804688"/>
      <use xlink:href="#DejaVuSans-6f" x="877.587891"/>
      <use xlink:href="#DejaVuSans-29" x="938.769531"/>
     </g>
    </g>
   </g>
   <g id="line2d_89">
    <path d="M 115.363636 182.230051 
L 125.293172 182.230051 
L 135.224169 182.230051 
L 145.15264 182.230051 
L 155.077552 182.230051 
L 164.998156 182.230051 
L 174.916324 182.230051 
L 184.830331 182.230051 
L 194.741239 182.230051 
L 204.647421 182.230051 
L 214.54926 182.230051 
L 224.446666 182.230051 
L 234.339827 182.230051 
L 244.229245 182.230051 
L 254.114098 182.230051 
L 263.994106 182.230051 
L 273.869057 182.230051 
L 283.739435 182.230051 
L 293.60461 182.230051 
L 303.465292 182.230051 
L 313.32069 182.230051 
L 323.17107 182.230051 
L 333.016436 182.230051 
L 342.856771 182.230051 
L 352.692013 182.230051 
L 362.522702 182.230051 
L 381.088042 182.230051 
L 399.625657 182.230051 
L 418.209883 182.230051 
L 436.794108 182.230051 
L 455.378334 182.230051 
L 473.962559 182.230051 
L 492.546785 182.230051 
L 511.13101 182.230051 
L 529.715236 182.230051 
L 548.299462 182.230051 
L 566.883687 182.230051 
L 585.467913 182.230051 
L 604.052138 182.230051 
L 622.636364 182.230051 
" clip-path="url(#p9b4354d613)" style="fill: none; stroke: #1f77b4; stroke-width: 1.5; stroke-linecap: square"/>
   </g>
   <g id="line2d_90">
    <path d="M 115.363636 198.807611 
L 125.293172 215.62987 
L 135.224169 205.822418 
L 145.15264 194.889528 
L 155.077552 205.649558 
L 164.998156 207.121566 
L 174.916324 206.464507 
L 184.830331 209.872509 
L 194.741239 201.5169 
L 204.647421 201.987023 
L 214.54926 205.467824 
L 224.446666 212.547929 
L 234.339827 202.045732 
L 244.229245 200.96935 
L 254.114098 197.046596 
L 263.994106 181.500266 
L 273.869057 182.894042 
L 283.739435 204.348292 
L 293.60461 224.471902 
L 303.465292 183.217214 
L 313.32069 202.759321 
L 323.17107 198.910161 
L 333.016436 194.382988 
L 342.856771 190.534203 
L 352.692013 196.342904 
L 362.522702 197.326157 
L 381.088042 199.778541 
L 399.625657 196.053504 
L 418.209883 197.136406 
L 436.794108 193.682129 
L 455.378334 201.377281 
L 473.962559 203.280917 
L 492.546785 200.800465 
L 511.13101 200.299815 
L 529.715236 215.890374 
L 548.299462 197.905999 
L 566.883687 195.191764 
L 585.467913 204.794894 
L 604.052138 202.629048 
L 622.636364 195.3777 
" clip-path="url(#p9b4354d613)" style="fill: none; stroke: #ff7f0e; stroke-width: 1.5; stroke-linecap: square"/>
   </g>
   <g id="line2d_91">
    <path d="M 115.363636 259.826419 
L 125.293172 261.178364 
L 135.224169 259.590567 
L 145.15264 256.973122 
L 155.077552 241.43899 
L 164.998156 243.386468 
L 174.916324 251.107655 
L 184.830331 258.789078 
L 194.741239 259.278409 
L 204.647421 259.08204 
L 214.54926 259.127976 
L 224.446666 258.931806 
L 234.339827 257.924908 
L 244.229245 258.275818 
L 254.114098 260.944162 
L 263.994106 260.579902 
L 273.869057 258.493987 
L 283.739435 259.900976 
L 293.60461 251.202938 
L 303.465292 248.31132 
L 313.32069 245.980265 
L 323.17107 261.105452 
L 333.016436 252.579473 
L 342.856771 251.691591 
L 352.692013 253.55012 
L 362.522702 236.035591 
L 381.088042 242.308768 
L 399.625657 244.134556 
L 418.209883 236.711817 
L 436.794108 240.182732 
L 455.378334 241.462452 
L 473.962559 245.951194 
L 492.546785 239.756195 
L 511.13101 243.429023 
L 529.715236 249.832111 
L 548.299462 247.626526 
L 566.883687 230.440963 
L 585.467913 235.297093 
L 604.052138 228.529597 
L 622.636364 235.257322 
" clip-path="url(#p9b4354d613)" style="fill: none; stroke: #2ca02c; stroke-width: 1.5; stroke-linecap: square"/>
   </g>
   <g id="line2d_92">
    <path d="M 115.363636 256.973409 
L 125.293172 258.841732 
L 135.224169 244.15252 
L 145.15264 258.211841 
L 155.077552 256.67595 
L 164.998156 253.810544 
L 174.916324 257.284956 
L 184.830331 257.893204 
L 194.741239 256.528088 
L 204.647421 254.145385 
L 214.54926 248.194877 
L 224.446666 257.772191 
L 234.339827 256.479808 
L 244.229245 256.101875 
L 254.114098 260.489144 
L 263.994106 257.555916 
L 273.869057 257.536817 
L 283.739435 257.617124 
L 293.60461 250.440917 
L 303.465292 245.308436 
L 313.32069 243.815903 
L 323.17107 258.629653 
L 333.016436 249.784763 
L 342.856771 249.210477 
L 352.692013 252.542549 
L 362.522702 231.327057 
L 381.088042 242.08589 
L 399.625657 242.812706 
L 418.209883 221.331869 
L 436.794108 238.921692 
L 455.378334 245.269082 
L 473.962559 241.898349 
L 492.546785 246.722589 
L 511.13101 222.655025 
L 529.715236 246.047908 
L 548.299462 229.859832 
L 566.883687 228.564062 
L 585.467913 232.2641 
L 604.052138 234.936208 
L 622.636364 230.211631 
" clip-path="url(#p9b4354d613)" style="fill: none; stroke: #d62728; stroke-width: 1.5; stroke-linecap: square"/>
   </g>
   <g id="line2d_93">
    <path d="M 115.363636 242.993962 
L 125.293172 254.114234 
L 135.224169 234.352946 
L 145.15264 253.768943 
L 155.077552 250.613142 
L 164.998156 252.7955 
L 174.916324 252.03078 
L 184.830331 252.432309 
L 194.741239 250.430848 
L 204.647421 250.663123 
L 214.54926 251.841039 
L 224.446666 253.221948 
L 234.339827 250.542682 
L 244.229245 250.347358 
L 254.114098 257.027484 
L 263.994106 234.612997 
L 273.869057 247.014136 
L 283.739435 252.525471 
L 293.60461 247.205466 
L 303.465292 252.488102 
L 313.32069 239.133632 
L 323.17107 239.614648 
L 333.016436 226.489958 
L 342.856771 226.891326 
L 352.692013 236.772333 
L 362.522702 237.991719 
L 381.088042 236.954234 
L 399.625657 229.623276 
L 418.209883 186.016593 
L 436.794108 234.005763 
L 455.378334 216.59793 
L 473.962559 234.644491 
L 492.546785 241.061272 
L 511.13101 235.667386 
L 529.715236 242.700461 
L 548.299462 221.450651 
L 566.883687 221.386975 
L 585.467913 243.559839 
L 604.052138 223.84103 
L 622.636364 222.86638 
" clip-path="url(#p9b4354d613)" style="fill: none; stroke: #9467bd; stroke-width: 1.5; stroke-linecap: square"/>
   </g>
   <g id="line2d_94">
    <path d="M 115.363636 197.708173 
L 125.293172 210.726108 
L 135.224169 177.054456 
L 145.15264 208.766631 
L 155.077552 203.596287 
L 164.998156 205.890978 
L 174.916324 204.578001 
L 184.830331 209.932696 
L 194.741239 197.741622 
L 204.647421 201.387668 
L 214.54926 200.23376 
L 224.446666 175.582542 
L 234.339827 198.298331 
L 244.229245 193.277675 
L 254.114098 223.714581 
L 263.994106 166.105636 
L 273.869057 200.206934 
L 283.739435 204.078608 
L 293.60461 209.359723 
L 303.465292 184.700828 
L 313.32069 200.494825 
L 323.17107 199.377971 
L 333.016436 194.358001 
L 342.856771 183.650995 
L 352.692013 198.704399 
L 362.522702 184.665649 
L 381.088042 199.04437 
L 399.625657 167.056481 
L 418.209883 193.579105 
L 436.794108 171.921049 
L 455.378334 202.330731 
L 473.962559 187.575505 
L 492.546785 203.283574 
L 511.13101 177.85297 
L 529.715236 199.694594 
L 548.299462 195.221785 
L 566.883687 193.256916 
L 585.467913 203.36781 
L 604.052138 197.681711 
L 622.636364 197.126597 
" clip-path="url(#p9b4354d613)" style="fill: none; stroke: #8c564b; stroke-width: 1.5; stroke-linecap: square"/>
   </g>
   <g id="patch_9">
    <path d="M 90 265.932 
L 90 161.352 
" style="fill: none; stroke: #000000; stroke-width: 0.8; stroke-linejoin: miter; stroke-linecap: square"/>
   </g>
   <g id="patch_10">
    <path d="M 648 265.932 
L 648 161.352 
" style="fill: none; stroke: #000000; stroke-width: 0.8; stroke-linejoin: miter; stroke-linecap: square"/>
   </g>
   <g id="patch_11">
    <path d="M 90 265.932 
L 648 265.932 
" style="fill: none; stroke: #000000; stroke-width: 0.8; stroke-linejoin: miter; stroke-linecap: square"/>
   </g>
   <g id="patch_12">
    <path d="M 90 161.352 
L 648 161.352 
" style="fill: none; stroke: #000000; stroke-width: 0.8; stroke-linejoin: miter; stroke-linecap: square"/>
   </g>
  </g>
 </g>
 <defs>
  <clipPath id="p2335841b52">
   <rect x="90" y="35.856" width="558" height="104.58"/>
  </clipPath>
  <clipPath id="p9b4354d613">
   <rect x="90" y="161.352" width="558" height="104.58"/>
  </clipPath>
 </defs>
</svg>
