<?xml version="1.0" encoding="utf-8" standalone="no"?>
<!DOCTYPE svg PUBLIC "-//W3C//DTD SVG 1.1//EN"
  "http://www.w3.org/Graphics/SVG/1.1/DTD/svg11.dtd">
<svg xmlns:xlink="http://www.w3.org/1999/xlink" width="720pt" height="298.8pt" viewBox="0 0 720 298.8" xmlns="http://www.w3.org/2000/svg" version="1.1">
 <metadata>
  <rdf:RDF xmlns:dc="http://purl.org/dc/elements/1.1/" xmlns:cc="http://creativecommons.org/ns#" xmlns:rdf="http://www.w3.org/1999/02/22-rdf-syntax-ns#">
   <cc:Work>
    <dc:type rdf:resource="http://purl.org/dc/dcmitype/StillImage"/>
    <dc:date>2022-02-26T18:30:33.050814</dc:date>
    <dc:format>image/svg+xml</dc:format>
    <dc:creator>
     <cc:Agent>
      <dc:title>Matplotlib v3.5.1, https://matplotlib.org/</dc:title>
     </cc:Agent>
    </dc:creator>
   </cc:Work>
  </rdf:RDF>
 </metadata>
 <defs>
  <style type="text/css">*{stroke-linejoin: round; stroke-linecap: butt}</style>
 </defs>
 <g id="figure_1">
  <g id="patch_1">
   <path d="M 0 298.8 
L 720 298.8 
L 720 0 
L 0 0 
z
" style="fill: #ffffff"/>
  </g>
  <g id="axes_1">
   <g id="patch_2">
    <path d="M 90 140.436 
L 648 140.436 
L 648 35.856 
L 90 35.856 
z
" style="fill: #ffffff"/>
   </g>
   <g id="matplotlib.axis_1">
    <g id="xtick_1">
     <g id="line2d_1">
      <path d="M 166.951075 140.436 
L 166.951075 35.856 
" clip-path="url(#pbade0408e9)" style="fill: none; stroke: #b0b0b0; stroke-width: 0.8; stroke-linecap: square"/>
     </g>
     <g id="line2d_2">
      <defs>
       <path id="m03228a5af7" d="M 0 0 
L 0 3.5 
" style="stroke: #000000; stroke-width: 0.8"/>
      </defs>
      <g>
       <use xlink:href="#m03228a5af7" x="166.951075" y="140.436" style="stroke: #000000; stroke-width: 0.8"/>
      </g>
     </g>
     <g id="text_1">
      <!-- $\mathdefault{10^{0}}$ -->
      <g transform="translate(158.151075 155.034437)scale(0.1 -0.1)">
       <defs>
        <path id="DejaVuSans-31" d="M 794 531 
L 1825 531 
L 1825 4091 
L 703 3866 
L 703 4441 
L 1819 4666 
L 2450 4666 
L 2450 531 
L 3481 531 
L 3481 0 
L 794 0 
L 794 531 
z
" transform="scale(0.015625)"/>
        <path id="DejaVuSans-30" d="M 2034 4250 
Q 1547 4250 1301 3770 
Q 1056 3291 1056 2328 
Q 1056 1369 1301 889 
Q 1547 409 2034 409 
Q 2525 409 2770 889 
Q 3016 1369 3016 2328 
Q 3016 3291 2770 3770 
Q 2525 4250 2034 4250 
z
M 2034 4750 
Q 2819 4750 3233 4129 
Q 3647 3509 3647 2328 
Q 3647 1150 3233 529 
Q 2819 -91 2034 -91 
Q 1250 -91 836 529 
Q 422 1150 422 2328 
Q 422 3509 836 4129 
Q 1250 4750 2034 4750 
z
" transform="scale(0.015625)"/>
       </defs>
       <use xlink:href="#DejaVuSans-31" transform="translate(0 0.765625)"/>
       <use xlink:href="#DejaVuSans-30" transform="translate(63.623047 0.765625)"/>
       <use xlink:href="#DejaVuSans-30" transform="translate(128.203125 39.046875)scale(0.7)"/>
      </g>
     </g>
    </g>
    <g id="xtick_2">
     <g id="line2d_3">
      <path d="M 358.718932 140.436 
L 358.718932 35.856 
" clip-path="url(#pbade0408e9)" style="fill: none; stroke: #b0b0b0; stroke-width: 0.8; stroke-linecap: square"/>
     </g>
     <g id="line2d_4">
      <g>
       <use xlink:href="#m03228a5af7" x="358.718932" y="140.436" style="stroke: #000000; stroke-width: 0.8"/>
      </g>
     </g>
     <g id="text_2">
      <!-- $\mathdefault{10^{1}}$ -->
      <g transform="translate(349.918932 155.034437)scale(0.1 -0.1)">
       <use xlink:href="#DejaVuSans-31" transform="translate(0 0.684375)"/>
       <use xlink:href="#DejaVuSans-30" transform="translate(63.623047 0.684375)"/>
       <use xlink:href="#DejaVuSans-31" transform="translate(128.203125 38.965625)scale(0.7)"/>
      </g>
     </g>
    </g>
    <g id="xtick_3">
     <g id="line2d_5">
      <path d="M 550.486789 140.436 
L 550.486789 35.856 
" clip-path="url(#pbade0408e9)" style="fill: none; stroke: #b0b0b0; stroke-width: 0.8; stroke-linecap: square"/>
     </g>
     <g id="line2d_6">
      <g>
       <use xlink:href="#m03228a5af7" x="550.486789" y="140.436" style="stroke: #000000; stroke-width: 0.8"/>
      </g>
     </g>
     <g id="text_3">
      <!-- $\mathdefault{10^{2}}$ -->
      <g transform="translate(541.686789 155.034437)scale(0.1 -0.1)">
       <defs>
        <path id="DejaVuSans-32" d="M 1228 531 
L 3431 531 
L 3431 0 
L 469 0 
L 469 531 
Q 828 903 1448 1529 
Q 2069 2156 2228 2338 
Q 2531 2678 2651 2914 
Q 2772 3150 2772 3378 
Q 2772 3750 2511 3984 
Q 2250 4219 1831 4219 
Q 1534 4219 1204 4116 
Q 875 4013 500 3803 
L 500 4441 
Q 881 4594 1212 4672 
Q 1544 4750 1819 4750 
Q 2544 4750 2975 4387 
Q 3406 4025 3406 3419 
Q 3406 3131 3298 2873 
Q 3191 2616 2906 2266 
Q 2828 2175 2409 1742 
Q 1991 1309 1228 531 
z
" transform="scale(0.015625)"/>
       </defs>
       <use xlink:href="#DejaVuSans-31" transform="translate(0 0.765625)"/>
       <use xlink:href="#DejaVuSans-30" transform="translate(63.623047 0.765625)"/>
       <use xlink:href="#DejaVuSans-32" transform="translate(128.203125 39.046875)scale(0.7)"/>
      </g>
     </g>
    </g>
    <g id="xtick_4">
     <g id="line2d_7">
      <defs>
       <path id="m20102ec4b7" d="M 0 0 
L 0 2 
" style="stroke: #000000; stroke-width: 0.6"/>
      </defs>
      <g>
       <use xlink:href="#m20102ec4b7" x="90.638972" y="140.436" style="stroke: #000000; stroke-width: 0.6"/>
      </g>
     </g>
    </g>
    <g id="xtick_5">
     <g id="line2d_8">
      <g>
       <use xlink:href="#m20102ec4b7" x="109.223198" y="140.436" style="stroke: #000000; stroke-width: 0.6"/>
      </g>
     </g>
    </g>
    <g id="xtick_6">
     <g id="line2d_9">
      <g>
       <use xlink:href="#m20102ec4b7" x="124.407616" y="140.436" style="stroke: #000000; stroke-width: 0.6"/>
      </g>
     </g>
    </g>
    <g id="xtick_7">
     <g id="line2d_10">
      <g>
       <use xlink:href="#m20102ec4b7" x="137.245858" y="140.436" style="stroke: #000000; stroke-width: 0.6"/>
      </g>
     </g>
    </g>
    <g id="xtick_8">
     <g id="line2d_11">
      <g>
       <use xlink:href="#m20102ec4b7" x="148.36685" y="140.436" style="stroke: #000000; stroke-width: 0.6"/>
      </g>
     </g>
    </g>
    <g id="xtick_9">
     <g id="line2d_12">
      <g>
       <use xlink:href="#m20102ec4b7" x="158.176259" y="140.436" style="stroke: #000000; stroke-width: 0.6"/>
      </g>
     </g>
    </g>
    <g id="xtick_10">
     <g id="line2d_13">
      <g>
       <use xlink:href="#m20102ec4b7" x="224.678952" y="140.436" style="stroke: #000000; stroke-width: 0.6"/>
      </g>
     </g>
    </g>
    <g id="xtick_11">
     <g id="line2d_14">
      <g>
       <use xlink:href="#m20102ec4b7" x="258.447596" y="140.436" style="stroke: #000000; stroke-width: 0.6"/>
      </g>
     </g>
    </g>
    <g id="xtick_12">
     <g id="line2d_15">
      <g>
       <use xlink:href="#m20102ec4b7" x="282.406829" y="140.436" style="stroke: #000000; stroke-width: 0.6"/>
      </g>
     </g>
    </g>
    <g id="xtick_13">
     <g id="line2d_16">
      <g>
       <use xlink:href="#m20102ec4b7" x="300.991055" y="140.436" style="stroke: #000000; stroke-width: 0.6"/>
      </g>
     </g>
    </g>
    <g id="xtick_14">
     <g id="line2d_17">
      <g>
       <use xlink:href="#m20102ec4b7" x="316.175473" y="140.436" style="stroke: #000000; stroke-width: 0.6"/>
      </g>
     </g>
    </g>
    <g id="xtick_15">
     <g id="line2d_18">
      <g>
       <use xlink:href="#m20102ec4b7" x="329.013715" y="140.436" style="stroke: #000000; stroke-width: 0.6"/>
      </g>
     </g>
    </g>
    <g id="xtick_16">
     <g id="line2d_19">
      <g>
       <use xlink:href="#m20102ec4b7" x="340.134707" y="140.436" style="stroke: #000000; stroke-width: 0.6"/>
      </g>
     </g>
    </g>
    <g id="xtick_17">
     <g id="line2d_20">
      <g>
       <use xlink:href="#m20102ec4b7" x="349.944116" y="140.436" style="stroke: #000000; stroke-width: 0.6"/>
      </g>
     </g>
    </g>
    <g id="xtick_18">
     <g id="line2d_21">
      <g>
       <use xlink:href="#m20102ec4b7" x="416.446809" y="140.436" style="stroke: #000000; stroke-width: 0.6"/>
      </g>
     </g>
    </g>
    <g id="xtick_19">
     <g id="line2d_22">
      <g>
       <use xlink:href="#m20102ec4b7" x="450.215453" y="140.436" style="stroke: #000000; stroke-width: 0.6"/>
      </g>
     </g>
    </g>
    <g id="xtick_20">
     <g id="line2d_23">
      <g>
       <use xlink:href="#m20102ec4b7" x="474.174687" y="140.436" style="stroke: #000000; stroke-width: 0.6"/>
      </g>
     </g>
    </g>
    <g id="xtick_21">
     <g id="line2d_24">
      <g>
       <use xlink:href="#m20102ec4b7" x="492.758912" y="140.436" style="stroke: #000000; stroke-width: 0.6"/>
      </g>
     </g>
    </g>
    <g id="xtick_22">
     <g id="line2d_25">
      <g>
       <use xlink:href="#m20102ec4b7" x="507.94333" y="140.436" style="stroke: #000000; stroke-width: 0.6"/>
      </g>
     </g>
    </g>
    <g id="xtick_23">
     <g id="line2d_26">
      <g>
       <use xlink:href="#m20102ec4b7" x="520.781572" y="140.436" style="stroke: #000000; stroke-width: 0.6"/>
      </g>
     </g>
    </g>
    <g id="xtick_24">
     <g id="line2d_27">
      <g>
       <use xlink:href="#m20102ec4b7" x="531.902564" y="140.436" style="stroke: #000000; stroke-width: 0.6"/>
      </g>
     </g>
    </g>
    <g id="xtick_25">
     <g id="line2d_28">
      <g>
       <use xlink:href="#m20102ec4b7" x="541.711973" y="140.436" style="stroke: #000000; stroke-width: 0.6"/>
      </g>
     </g>
    </g>
    <g id="xtick_26">
     <g id="line2d_29">
      <g>
       <use xlink:href="#m20102ec4b7" x="608.214667" y="140.436" style="stroke: #000000; stroke-width: 0.6"/>
      </g>
     </g>
    </g>
    <g id="xtick_27">
     <g id="line2d_30">
      <g>
       <use xlink:href="#m20102ec4b7" x="641.98331" y="140.436" style="stroke: #000000; stroke-width: 0.6"/>
      </g>
     </g>
    </g>
    <g id="text_4">
     <!-- JSON size (MB) -->
     <g transform="translate(332.155469 168.712562)scale(0.1 -0.1)">
      <defs>
       <path id="DejaVuSans-4a" d="M 628 4666 
L 1259 4666 
L 1259 325 
Q 1259 -519 939 -900 
Q 619 -1281 -91 -1281 
L -331 -1281 
L -331 -750 
L -134 -750 
Q 284 -750 456 -515 
Q 628 -281 628 325 
L 628 4666 
z
" transform="scale(0.015625)"/>
       <path id="DejaVuSans-53" d="M 3425 4513 
L 3425 3897 
Q 3066 4069 2747 4153 
Q 2428 4238 2131 4238 
Q 1616 4238 1336 4038 
Q 1056 3838 1056 3469 
Q 1056 3159 1242 3001 
Q 1428 2844 1947 2747 
L 2328 2669 
Q 3034 2534 3370 2195 
Q 3706 1856 3706 1288 
Q 3706 609 3251 259 
Q 2797 -91 1919 -91 
Q 1588 -91 1214 -16 
Q 841 59 441 206 
L 441 856 
Q 825 641 1194 531 
Q 1563 422 1919 422 
Q 2459 422 2753 634 
Q 3047 847 3047 1241 
Q 3047 1584 2836 1778 
Q 2625 1972 2144 2069 
L 1759 2144 
Q 1053 2284 737 2584 
Q 422 2884 422 3419 
Q 422 4038 858 4394 
Q 1294 4750 2059 4750 
Q 2388 4750 2728 4690 
Q 3069 4631 3425 4513 
z
" transform="scale(0.015625)"/>
       <path id="DejaVuSans-4f" d="M 2522 4238 
Q 1834 4238 1429 3725 
Q 1025 3213 1025 2328 
Q 1025 1447 1429 934 
Q 1834 422 2522 422 
Q 3209 422 3611 934 
Q 4013 1447 4013 2328 
Q 4013 3213 3611 3725 
Q 3209 4238 2522 4238 
z
M 2522 4750 
Q 3503 4750 4090 4092 
Q 4678 3434 4678 2328 
Q 4678 1225 4090 567 
Q 3503 -91 2522 -91 
Q 1538 -91 948 565 
Q 359 1222 359 2328 
Q 359 3434 948 4092 
Q 1538 4750 2522 4750 
z
" transform="scale(0.015625)"/>
       <path id="DejaVuSans-4e" d="M 628 4666 
L 1478 4666 
L 3547 763 
L 3547 4666 
L 4159 4666 
L 4159 0 
L 3309 0 
L 1241 3903 
L 1241 0 
L 628 0 
L 628 4666 
z
" transform="scale(0.015625)"/>
       <path id="DejaVuSans-20" transform="scale(0.015625)"/>
       <path id="DejaVuSans-73" d="M 2834 3397 
L 2834 2853 
Q 2591 2978 2328 3040 
Q 2066 3103 1784 3103 
Q 1356 3103 1142 2972 
Q 928 2841 928 2578 
Q 928 2378 1081 2264 
Q 1234 2150 1697 2047 
L 1894 2003 
Q 2506 1872 2764 1633 
Q 3022 1394 3022 966 
Q 3022 478 2636 193 
Q 2250 -91 1575 -91 
Q 1294 -91 989 -36 
Q 684 19 347 128 
L 347 722 
Q 666 556 975 473 
Q 1284 391 1588 391 
Q 1994 391 2212 530 
Q 2431 669 2431 922 
Q 2431 1156 2273 1281 
Q 2116 1406 1581 1522 
L 1381 1569 
Q 847 1681 609 1914 
Q 372 2147 372 2553 
Q 372 3047 722 3315 
Q 1072 3584 1716 3584 
Q 2034 3584 2315 3537 
Q 2597 3491 2834 3397 
z
" transform="scale(0.015625)"/>
       <path id="DejaVuSans-69" d="M 603 3500 
L 1178 3500 
L 1178 0 
L 603 0 
L 603 3500 
z
M 603 4863 
L 1178 4863 
L 1178 4134 
L 603 4134 
L 603 4863 
z
" transform="scale(0.015625)"/>
       <path id="DejaVuSans-7a" d="M 353 3500 
L 3084 3500 
L 3084 2975 
L 922 459 
L 3084 459 
L 3084 0 
L 275 0 
L 275 525 
L 2438 3041 
L 353 3041 
L 353 3500 
z
" transform="scale(0.015625)"/>
       <path id="DejaVuSans-65" d="M 3597 1894 
L 3597 1613 
L 953 1613 
Q 991 1019 1311 708 
Q 1631 397 2203 397 
Q 2534 397 2845 478 
Q 3156 559 3463 722 
L 3463 178 
Q 3153 47 2828 -22 
Q 2503 -91 2169 -91 
Q 1331 -91 842 396 
Q 353 884 353 1716 
Q 353 2575 817 3079 
Q 1281 3584 2069 3584 
Q 2775 3584 3186 3129 
Q 3597 2675 3597 1894 
z
M 3022 2063 
Q 3016 2534 2758 2815 
Q 2500 3097 2075 3097 
Q 1594 3097 1305 2825 
Q 1016 2553 972 2059 
L 3022 2063 
z
" transform="scale(0.015625)"/>
       <path id="DejaVuSans-28" d="M 1984 4856 
Q 1566 4138 1362 3434 
Q 1159 2731 1159 2009 
Q 1159 1288 1364 580 
Q 1569 -128 1984 -844 
L 1484 -844 
Q 1016 -109 783 600 
Q 550 1309 550 2009 
Q 550 2706 781 3412 
Q 1013 4119 1484 4856 
L 1984 4856 
z
" transform="scale(0.015625)"/>
       <path id="DejaVuSans-4d" d="M 628 4666 
L 1569 4666 
L 2759 1491 
L 3956 4666 
L 4897 4666 
L 4897 0 
L 4281 0 
L 4281 4097 
L 3078 897 
L 2444 897 
L 1241 4097 
L 1241 0 
L 628 0 
L 628 4666 
z
" transform="scale(0.015625)"/>
       <path id="DejaVuSans-42" d="M 1259 2228 
L 1259 519 
L 2272 519 
Q 2781 519 3026 730 
Q 3272 941 3272 1375 
Q 3272 1813 3026 2020 
Q 2781 2228 2272 2228 
L 1259 2228 
z
M 1259 4147 
L 1259 2741 
L 2194 2741 
Q 2656 2741 2882 2914 
Q 3109 3088 3109 3444 
Q 3109 3797 2882 3972 
Q 2656 4147 2194 4147 
L 1259 4147 
z
M 628 4666 
L 2241 4666 
Q 2963 4666 3353 4366 
Q 3744 4066 3744 3513 
Q 3744 3084 3544 2831 
Q 3344 2578 2956 2516 
Q 3422 2416 3680 2098 
Q 3938 1781 3938 1306 
Q 3938 681 3513 340 
Q 3088 0 2303 0 
L 628 0 
L 628 4666 
z
" transform="scale(0.015625)"/>
       <path id="DejaVuSans-29" d="M 513 4856 
L 1013 4856 
Q 1481 4119 1714 3412 
Q 1947 2706 1947 2009 
Q 1947 1309 1714 600 
Q 1481 -109 1013 -844 
L 513 -844 
Q 928 -128 1133 580 
Q 1338 1288 1338 2009 
Q 1338 2731 1133 3434 
Q 928 4138 513 4856 
z
" transform="scale(0.015625)"/>
      </defs>
      <use xlink:href="#DejaVuSans-4a"/>
      <use xlink:href="#DejaVuSans-53" x="29.492188"/>
      <use xlink:href="#DejaVuSans-4f" x="92.96875"/>
      <use xlink:href="#DejaVuSans-4e" x="171.679688"/>
      <use xlink:href="#DejaVuSans-20" x="246.484375"/>
      <use xlink:href="#DejaVuSans-73" x="278.271484"/>
      <use xlink:href="#DejaVuSans-69" x="330.371094"/>
      <use xlink:href="#DejaVuSans-7a" x="358.154297"/>
      <use xlink:href="#DejaVuSans-65" x="410.644531"/>
      <use xlink:href="#DejaVuSans-20" x="472.167969"/>
      <use xlink:href="#DejaVuSans-28" x="503.955078"/>
      <use xlink:href="#DejaVuSans-4d" x="542.96875"/>
      <use xlink:href="#DejaVuSans-42" x="629.248047"/>
      <use xlink:href="#DejaVuSans-29" x="697.851562"/>
     </g>
    </g>
   </g>
   <g id="matplotlib.axis_2">
    <g id="ytick_1">
     <g id="line2d_31">
      <path d="M 90 139.909651 
L 648 139.909651 
" clip-path="url(#pbade0408e9)" style="fill: none; stroke: #b0b0b0; stroke-width: 0.8; stroke-linecap: square"/>
     </g>
     <g id="line2d_32">
      <defs>
       <path id="m92917bcbde" d="M 0 0 
L -3.5 0 
" style="stroke: #000000; stroke-width: 0.8"/>
      </defs>
      <g>
       <use xlink:href="#m92917bcbde" x="90" y="139.909651" style="stroke: #000000; stroke-width: 0.8"/>
      </g>
     </g>
     <g id="text_5">
      <!-- 0.0 -->
      <g transform="translate(67.096875 143.70887)scale(0.1 -0.1)">
       <defs>
        <path id="DejaVuSans-2e" d="M 684 794 
L 1344 794 
L 1344 0 
L 684 0 
L 684 794 
z
" transform="scale(0.015625)"/>
       </defs>
       <use xlink:href="#DejaVuSans-30"/>
       <use xlink:href="#DejaVuSans-2e" x="63.623047"/>
       <use xlink:href="#DejaVuSans-30" x="95.410156"/>
      </g>
     </g>
    </g>
    <g id="ytick_2">
     <g id="line2d_33">
      <path d="M 90 99.812623 
L 648 99.812623 
" clip-path="url(#pbade0408e9)" style="fill: none; stroke: #b0b0b0; stroke-width: 0.8; stroke-linecap: square"/>
     </g>
     <g id="line2d_34">
      <g>
       <use xlink:href="#m92917bcbde" x="90" y="99.812623" style="stroke: #000000; stroke-width: 0.8"/>
      </g>
     </g>
     <g id="text_6">
      <!-- 0.5 -->
      <g transform="translate(67.096875 103.611842)scale(0.1 -0.1)">
       <defs>
        <path id="DejaVuSans-35" d="M 691 4666 
L 3169 4666 
L 3169 4134 
L 1269 4134 
L 1269 2991 
Q 1406 3038 1543 3061 
Q 1681 3084 1819 3084 
Q 2600 3084 3056 2656 
Q 3513 2228 3513 1497 
Q 3513 744 3044 326 
Q 2575 -91 1722 -91 
Q 1428 -91 1123 -41 
Q 819 9 494 109 
L 494 744 
Q 775 591 1075 516 
Q 1375 441 1709 441 
Q 2250 441 2565 725 
Q 2881 1009 2881 1497 
Q 2881 1984 2565 2268 
Q 2250 2553 1709 2553 
Q 1456 2553 1204 2497 
Q 953 2441 691 2322 
L 691 4666 
z
" transform="scale(0.015625)"/>
       </defs>
       <use xlink:href="#DejaVuSans-30"/>
       <use xlink:href="#DejaVuSans-2e" x="63.623047"/>
       <use xlink:href="#DejaVuSans-35" x="95.410156"/>
      </g>
     </g>
    </g>
    <g id="ytick_3">
     <g id="line2d_35">
      <path d="M 90 59.715595 
L 648 59.715595 
" clip-path="url(#pbade0408e9)" style="fill: none; stroke: #b0b0b0; stroke-width: 0.8; stroke-linecap: square"/>
     </g>
     <g id="line2d_36">
      <g>
       <use xlink:href="#m92917bcbde" x="90" y="59.715595" style="stroke: #000000; stroke-width: 0.8"/>
      </g>
     </g>
     <g id="text_7">
      <!-- 1.0 -->
      <g transform="translate(67.096875 63.514813)scale(0.1 -0.1)">
       <use xlink:href="#DejaVuSans-31"/>
       <use xlink:href="#DejaVuSans-2e" x="63.623047"/>
       <use xlink:href="#DejaVuSans-30" x="95.410156"/>
      </g>
     </g>
    </g>
    <g id="text_8">
     <!-- Encode time (ratio) -->
     <g transform="translate(61.017187 136.437406)rotate(-90)scale(0.1 -0.1)">
      <defs>
       <path id="DejaVuSans-45" d="M 628 4666 
L 3578 4666 
L 3578 4134 
L 1259 4134 
L 1259 2753 
L 3481 2753 
L 3481 2222 
L 1259 2222 
L 1259 531 
L 3634 531 
L 3634 0 
L 628 0 
L 628 4666 
z
" transform="scale(0.015625)"/>
       <path id="DejaVuSans-6e" d="M 3513 2113 
L 3513 0 
L 2938 0 
L 2938 2094 
Q 2938 2591 2744 2837 
Q 2550 3084 2163 3084 
Q 1697 3084 1428 2787 
Q 1159 2491 1159 1978 
L 1159 0 
L 581 0 
L 581 3500 
L 1159 3500 
L 1159 2956 
Q 1366 3272 1645 3428 
Q 1925 3584 2291 3584 
Q 2894 3584 3203 3211 
Q 3513 2838 3513 2113 
z
" transform="scale(0.015625)"/>
       <path id="DejaVuSans-63" d="M 3122 3366 
L 3122 2828 
Q 2878 2963 2633 3030 
Q 2388 3097 2138 3097 
Q 1578 3097 1268 2742 
Q 959 2388 959 1747 
Q 959 1106 1268 751 
Q 1578 397 2138 397 
Q 2388 397 2633 464 
Q 2878 531 3122 666 
L 3122 134 
Q 2881 22 2623 -34 
Q 2366 -91 2075 -91 
Q 1284 -91 818 406 
Q 353 903 353 1747 
Q 353 2603 823 3093 
Q 1294 3584 2113 3584 
Q 2378 3584 2631 3529 
Q 2884 3475 3122 3366 
z
" transform="scale(0.015625)"/>
       <path id="DejaVuSans-6f" d="M 1959 3097 
Q 1497 3097 1228 2736 
Q 959 2375 959 1747 
Q 959 1119 1226 758 
Q 1494 397 1959 397 
Q 2419 397 2687 759 
Q 2956 1122 2956 1747 
Q 2956 2369 2687 2733 
Q 2419 3097 1959 3097 
z
M 1959 3584 
Q 2709 3584 3137 3096 
Q 3566 2609 3566 1747 
Q 3566 888 3137 398 
Q 2709 -91 1959 -91 
Q 1206 -91 779 398 
Q 353 888 353 1747 
Q 353 2609 779 3096 
Q 1206 3584 1959 3584 
z
" transform="scale(0.015625)"/>
       <path id="DejaVuSans-64" d="M 2906 2969 
L 2906 4863 
L 3481 4863 
L 3481 0 
L 2906 0 
L 2906 525 
Q 2725 213 2448 61 
Q 2172 -91 1784 -91 
Q 1150 -91 751 415 
Q 353 922 353 1747 
Q 353 2572 751 3078 
Q 1150 3584 1784 3584 
Q 2172 3584 2448 3432 
Q 2725 3281 2906 2969 
z
M 947 1747 
Q 947 1113 1208 752 
Q 1469 391 1925 391 
Q 2381 391 2643 752 
Q 2906 1113 2906 1747 
Q 2906 2381 2643 2742 
Q 2381 3103 1925 3103 
Q 1469 3103 1208 2742 
Q 947 2381 947 1747 
z
" transform="scale(0.015625)"/>
       <path id="DejaVuSans-74" d="M 1172 4494 
L 1172 3500 
L 2356 3500 
L 2356 3053 
L 1172 3053 
L 1172 1153 
Q 1172 725 1289 603 
Q 1406 481 1766 481 
L 2356 481 
L 2356 0 
L 1766 0 
Q 1100 0 847 248 
Q 594 497 594 1153 
L 594 3053 
L 172 3053 
L 172 3500 
L 594 3500 
L 594 4494 
L 1172 4494 
z
" transform="scale(0.015625)"/>
       <path id="DejaVuSans-6d" d="M 3328 2828 
Q 3544 3216 3844 3400 
Q 4144 3584 4550 3584 
Q 5097 3584 5394 3201 
Q 5691 2819 5691 2113 
L 5691 0 
L 5113 0 
L 5113 2094 
Q 5113 2597 4934 2840 
Q 4756 3084 4391 3084 
Q 3944 3084 3684 2787 
Q 3425 2491 3425 1978 
L 3425 0 
L 2847 0 
L 2847 2094 
Q 2847 2600 2669 2842 
Q 2491 3084 2119 3084 
Q 1678 3084 1418 2786 
Q 1159 2488 1159 1978 
L 1159 0 
L 581 0 
L 581 3500 
L 1159 3500 
L 1159 2956 
Q 1356 3278 1631 3431 
Q 1906 3584 2284 3584 
Q 2666 3584 2933 3390 
Q 3200 3197 3328 2828 
z
" transform="scale(0.015625)"/>
       <path id="DejaVuSans-72" d="M 2631 2963 
Q 2534 3019 2420 3045 
Q 2306 3072 2169 3072 
Q 1681 3072 1420 2755 
Q 1159 2438 1159 1844 
L 1159 0 
L 581 0 
L 581 3500 
L 1159 3500 
L 1159 2956 
Q 1341 3275 1631 3429 
Q 1922 3584 2338 3584 
Q 2397 3584 2469 3576 
Q 2541 3569 2628 3553 
L 2631 2963 
z
" transform="scale(0.015625)"/>
       <path id="DejaVuSans-61" d="M 2194 1759 
Q 1497 1759 1228 1600 
Q 959 1441 959 1056 
Q 959 750 1161 570 
Q 1363 391 1709 391 
Q 2188 391 2477 730 
Q 2766 1069 2766 1631 
L 2766 1759 
L 2194 1759 
z
M 3341 1997 
L 3341 0 
L 2766 0 
L 2766 531 
Q 2569 213 2275 61 
Q 1981 -91 1556 -91 
Q 1019 -91 701 211 
Q 384 513 384 1019 
Q 384 1609 779 1909 
Q 1175 2209 1959 2209 
L 2766 2209 
L 2766 2266 
Q 2766 2663 2505 2880 
Q 2244 3097 1772 3097 
Q 1472 3097 1187 3025 
Q 903 2953 641 2809 
L 641 3341 
Q 956 3463 1253 3523 
Q 1550 3584 1831 3584 
Q 2591 3584 2966 3190 
Q 3341 2797 3341 1997 
z
" transform="scale(0.015625)"/>
      </defs>
      <use xlink:href="#DejaVuSans-45"/>
      <use xlink:href="#DejaVuSans-6e" x="63.183594"/>
      <use xlink:href="#DejaVuSans-63" x="126.5625"/>
      <use xlink:href="#DejaVuSans-6f" x="181.542969"/>
      <use xlink:href="#DejaVuSans-64" x="242.724609"/>
      <use xlink:href="#DejaVuSans-65" x="306.201172"/>
      <use xlink:href="#DejaVuSans-20" x="367.724609"/>
      <use xlink:href="#DejaVuSans-74" x="399.511719"/>
      <use xlink:href="#DejaVuSans-69" x="438.720703"/>
      <use xlink:href="#DejaVuSans-6d" x="466.503906"/>
      <use xlink:href="#DejaVuSans-65" x="563.916016"/>
      <use xlink:href="#DejaVuSans-20" x="625.439453"/>
      <use xlink:href="#DejaVuSans-28" x="657.226562"/>
      <use xlink:href="#DejaVuSans-72" x="696.240234"/>
      <use xlink:href="#DejaVuSans-61" x="737.353516"/>
      <use xlink:href="#DejaVuSans-74" x="798.632812"/>
      <use xlink:href="#DejaVuSans-69" x="837.841797"/>
      <use xlink:href="#DejaVuSans-6f" x="865.625"/>
      <use xlink:href="#DejaVuSans-29" x="926.806641"/>
     </g>
    </g>
   </g>
   <g id="line2d_37">
    <path d="M 115.363636 59.715595 
L 125.293172 59.715595 
L 135.224169 59.715595 
L 145.15264 59.715595 
L 155.077552 59.715595 
L 164.998156 59.715595 
L 174.916324 59.715595 
L 184.830331 59.715595 
L 194.741239 59.715595 
L 204.647421 59.715595 
L 214.54926 59.715595 
L 224.446666 59.715595 
L 234.339827 59.715595 
L 244.229245 59.715595 
L 254.114098 59.715595 
L 263.994106 59.715595 
L 273.869057 59.715595 
L 283.739435 59.715595 
L 293.60461 59.715595 
L 303.465292 59.715595 
L 313.32069 59.715595 
L 323.17107 59.715595 
L 333.016436 59.715595 
L 342.856771 59.715595 
L 352.692013 59.715595 
L 362.522702 59.715595 
L 381.088042 59.715595 
L 399.625657 59.715595 
L 418.209883 59.715595 
L 436.794108 59.715595 
L 455.378334 59.715595 
L 473.962559 59.715595 
L 492.546785 59.715595 
L 511.13101 59.715595 
L 529.715236 59.715595 
L 548.299462 59.715595 
L 566.883687 59.715595 
L 585.467913 59.715595 
L 604.052138 59.715595 
L 622.636364 59.715595 
" clip-path="url(#pbade0408e9)" style="fill: none; stroke: #1f77b4; stroke-width: 1.5; stroke-linecap: square"/>
   </g>
   <g id="line2d_38">
    <path d="M 115.363636 78.447036 
L 125.293172 89.198857 
L 135.224169 82.518845 
L 145.15264 91.162267 
L 155.077552 71.122376 
L 164.998156 82.087291 
L 174.916324 79.386311 
L 184.830331 77.092707 
L 194.741239 75.666404 
L 204.647421 84.35167 
L 214.54926 78.556809 
L 224.446666 79.162013 
L 234.339827 79.01084 
L 244.229245 79.612756 
L 254.114098 73.266278 
L 263.994106 87.876671 
L 273.869057 81.20331 
L 283.739435 79.663516 
L 293.60461 77.904647 
L 303.465292 79.589533 
L 313.32069 79.901117 
L 323.17107 81.439161 
L 333.016436 77.84751 
L 342.856771 76.688723 
L 352.692013 79.418335 
L 362.522702 75.349127 
L 381.088042 73.375427 
L 399.625657 71.282121 
L 418.209883 77.418031 
L 436.794108 84.096214 
L 455.378334 84.139693 
L 473.962559 81.692951 
L 492.546785 79.239927 
L 511.13101 83.952768 
L 529.715236 80.143791 
L 548.299462 82.319653 
L 566.883687 75.517867 
L 585.467913 81.906991 
L 604.052138 74.912157 
L 622.636364 83.68423 
" clip-path="url(#pbade0408e9)" style="fill: none; stroke: #ff7f0e; stroke-width: 1.5; stroke-linecap: square"/>
   </g>
   <g id="line2d_39">
    <path d="M 115.363636 134.589479 
L 125.293172 130.034401 
L 135.224169 135.079517 
L 145.15264 135.682364 
L 155.077552 40.609636 
L 164.998156 134.42021 
L 174.916324 134.345962 
L 184.830331 133.668734 
L 194.741239 134.067097 
L 204.647421 133.071211 
L 214.54926 133.060321 
L 224.446666 133.543917 
L 234.339827 133.769657 
L 244.229245 134.10262 
L 254.114098 134.044701 
L 263.994106 134.771701 
L 273.869057 134.434647 
L 283.739435 133.610149 
L 293.60461 133.969803 
L 303.465292 134.423606 
L 313.32069 133.483743 
L 323.17107 134.477177 
L 333.016436 133.553016 
L 342.856771 134.148854 
L 352.692013 134.685222 
L 362.522702 134.172739 
L 381.088042 134.566675 
L 399.625657 134.712855 
L 418.209883 135.067527 
L 436.794108 135.274507 
L 455.378334 135.390309 
L 473.962559 134.902306 
L 492.546785 135.060384 
L 511.13101 135.469348 
L 529.715236 135.233192 
L 548.299462 135.516468 
L 566.883687 134.110814 
L 585.467913 135.157562 
L 604.052138 134.808901 
L 622.636364 135.395177 
" clip-path="url(#pbade0408e9)" style="fill: none; stroke: #2ca02c; stroke-width: 1.5; stroke-linecap: square"/>
   </g>
   <g id="line2d_40">
    <path d="M 115.363636 83.012574 
L 125.293172 95.438876 
L 135.224169 116.024284 
L 145.15264 118.432725 
L 155.077552 111.817194 
L 164.998156 114.256952 
L 174.916324 114.119644 
L 184.830331 107.774329 
L 194.741239 112.307792 
L 204.647421 115.016549 
L 214.54926 111.470782 
L 224.446666 112.434447 
L 234.339827 112.473894 
L 244.229245 114.236765 
L 254.114098 115.123657 
L 263.994106 117.435258 
L 273.869057 106.739242 
L 283.739435 114.397752 
L 293.60461 113.664132 
L 303.465292 112.868756 
L 313.32069 110.798113 
L 323.17107 115.043762 
L 333.016436 109.869695 
L 342.856771 112.334134 
L 352.692013 114.393672 
L 362.522702 113.967258 
L 381.088042 114.556043 
L 399.625657 112.831627 
L 418.209883 116.983039 
L 436.794108 117.517485 
L 455.378334 115.806484 
L 473.962559 113.277615 
L 492.546785 116.369583 
L 511.13101 118.790021 
L 529.715236 116.822854 
L 548.299462 117.232978 
L 566.883687 118.014496 
L 585.467913 118.628578 
L 604.052138 117.777603 
L 622.636364 120.094418 
" clip-path="url(#pbade0408e9)" style="fill: none; stroke: #d62728; stroke-width: 1.5; stroke-linecap: square"/>
   </g>
   <g id="line2d_41">
    <path d="M 115.363636 121.994159 
L 125.293172 125.471246 
L 135.224169 123.960882 
L 145.15264 124.736989 
L 155.077552 123.107475 
L 164.998156 103.131976 
L 174.916324 107.792139 
L 184.830331 77.357757 
L 194.741239 119.220914 
L 204.647421 122.536868 
L 214.54926 119.769094 
L 224.446666 118.077033 
L 234.339827 121.320909 
L 244.229245 113.509501 
L 254.114098 121.948087 
L 263.994106 122.94759 
L 273.869057 122.408423 
L 283.739435 120.598241 
L 293.60461 121.976092 
L 303.465292 122.343853 
L 313.32069 122.453044 
L 323.17107 123.455949 
L 333.016436 122.34396 
L 342.856771 122.045888 
L 352.692013 122.453716 
L 362.522702 123.506999 
L 381.088042 118.076988 
L 399.625657 121.860819 
L 418.209883 121.508578 
L 436.794108 124.554593 
L 455.378334 121.486923 
L 473.962559 124.088737 
L 492.546785 121.096357 
L 511.13101 124.140542 
L 529.715236 120.840951 
L 548.299462 124.847561 
L 566.883687 123.063386 
L 585.467913 124.972778 
" clip-path="url(#pbade0408e9)" style="fill: none; stroke: #9467bd; stroke-width: 1.5; stroke-linecap: square"/>
   </g>
   <g id="patch_3">
    <path d="M 90 140.436 
L 90 35.856 
" style="fill: none; stroke: #000000; stroke-width: 0.8; stroke-linejoin: miter; stroke-linecap: square"/>
   </g>
   <g id="patch_4">
    <path d="M 648 140.436 
L 648 35.856 
" style="fill: none; stroke: #000000; stroke-width: 0.8; stroke-linejoin: miter; stroke-linecap: square"/>
   </g>
   <g id="patch_5">
    <path d="M 90 140.436 
L 648 140.436 
" style="fill: none; stroke: #000000; stroke-width: 0.8; stroke-linejoin: miter; stroke-linecap: square"/>
   </g>
   <g id="patch_6">
    <path d="M 90 35.856 
L 648 35.856 
" style="fill: none; stroke: #000000; stroke-width: 0.8; stroke-linejoin: miter; stroke-linecap: square"/>
   </g>
   <g id="legend_1">
    <g id="patch_7">
     <path d="M 148.274219 33.47185 
L 589.725781 33.47185 
Q 591.725781 33.47185 591.725781 31.47185 
L 591.725781 3.1156 
Q 591.725781 1.1156 589.725781 1.1156 
L 148.274219 1.1156 
Q 146.274219 1.1156 146.274219 3.1156 
L 146.274219 31.47185 
Q 146.274219 33.47185 148.274219 33.47185 
z
" style="fill: #ffffff; opacity: 0.8; stroke: #cccccc; stroke-linejoin: miter"/>
    </g>
    <g id="line2d_42">
     <path d="M 150.274219 9.214038 
L 160.274219 9.214038 
L 170.274219 9.214038 
" style="fill: none; stroke: #1f77b4; stroke-width: 1.5; stroke-linecap: square"/>
    </g>
    <g id="text_9">
     <!-- JSON -->
     <g transform="translate(178.274219 12.714038)scale(0.1 -0.1)">
      <use xlink:href="#DejaVuSans-4a"/>
      <use xlink:href="#DejaVuSans-53" x="29.492188"/>
      <use xlink:href="#DejaVuSans-4f" x="92.96875"/>
      <use xlink:href="#DejaVuSans-4e" x="171.679688"/>
     </g>
    </g>
    <g id="line2d_43">
     <path d="M 150.274219 23.892163 
L 160.274219 23.892163 
L 170.274219 23.892163 
" style="fill: none; stroke: #ff7f0e; stroke-width: 1.5; stroke-linecap: square"/>
    </g>
    <g id="text_10">
     <!-- JSON (unmapped) -->
     <g transform="translate(178.274219 27.392163)scale(0.1 -0.1)">
      <defs>
       <path id="DejaVuSans-75" d="M 544 1381 
L 544 3500 
L 1119 3500 
L 1119 1403 
Q 1119 906 1312 657 
Q 1506 409 1894 409 
Q 2359 409 2629 706 
Q 2900 1003 2900 1516 
L 2900 3500 
L 3475 3500 
L 3475 0 
L 2900 0 
L 2900 538 
Q 2691 219 2414 64 
Q 2138 -91 1772 -91 
Q 1169 -91 856 284 
Q 544 659 544 1381 
z
M 1991 3584 
L 1991 3584 
z
" transform="scale(0.015625)"/>
       <path id="DejaVuSans-70" d="M 1159 525 
L 1159 -1331 
L 581 -1331 
L 581 3500 
L 1159 3500 
L 1159 2969 
Q 1341 3281 1617 3432 
Q 1894 3584 2278 3584 
Q 2916 3584 3314 3078 
Q 3713 2572 3713 1747 
Q 3713 922 3314 415 
Q 2916 -91 2278 -91 
Q 1894 -91 1617 61 
Q 1341 213 1159 525 
z
M 3116 1747 
Q 3116 2381 2855 2742 
Q 2594 3103 2138 3103 
Q 1681 3103 1420 2742 
Q 1159 2381 1159 1747 
Q 1159 1113 1420 752 
Q 1681 391 2138 391 
Q 2594 391 2855 752 
Q 3116 1113 3116 1747 
z
" transform="scale(0.015625)"/>
      </defs>
      <use xlink:href="#DejaVuSans-4a"/>
      <use xlink:href="#DejaVuSans-53" x="29.492188"/>
      <use xlink:href="#DejaVuSans-4f" x="92.96875"/>
      <use xlink:href="#DejaVuSans-4e" x="171.679688"/>
      <use xlink:href="#DejaVuSans-20" x="246.484375"/>
      <use xlink:href="#DejaVuSans-28" x="278.271484"/>
      <use xlink:href="#DejaVuSans-75" x="317.285156"/>
      <use xlink:href="#DejaVuSans-6e" x="380.664062"/>
      <use xlink:href="#DejaVuSans-6d" x="444.042969"/>
      <use xlink:href="#DejaVuSans-61" x="541.455078"/>
      <use xlink:href="#DejaVuSans-70" x="602.734375"/>
      <use xlink:href="#DejaVuSans-70" x="666.210938"/>
      <use xlink:href="#DejaVuSans-65" x="729.6875"/>
      <use xlink:href="#DejaVuSans-64" x="791.210938"/>
      <use xlink:href="#DejaVuSans-29" x="854.6875"/>
     </g>
    </g>
    <g id="line2d_44">
     <path d="M 287.649219 9.214038 
L 297.649219 9.214038 
L 307.649219 9.214038 
" style="fill: none; stroke: #2ca02c; stroke-width: 1.5; stroke-linecap: square"/>
    </g>
    <g id="text_11">
     <!-- AVRO Avsc -->
     <g transform="translate(315.649219 12.714038)scale(0.1 -0.1)">
      <defs>
       <path id="DejaVuSans-41" d="M 2188 4044 
L 1331 1722 
L 3047 1722 
L 2188 4044 
z
M 1831 4666 
L 2547 4666 
L 4325 0 
L 3669 0 
L 3244 1197 
L 1141 1197 
L 716 0 
L 50 0 
L 1831 4666 
z
" transform="scale(0.015625)"/>
       <path id="DejaVuSans-56" d="M 1831 0 
L 50 4666 
L 709 4666 
L 2188 738 
L 3669 4666 
L 4325 4666 
L 2547 0 
L 1831 0 
z
" transform="scale(0.015625)"/>
       <path id="DejaVuSans-52" d="M 2841 2188 
Q 3044 2119 3236 1894 
Q 3428 1669 3622 1275 
L 4263 0 
L 3584 0 
L 2988 1197 
Q 2756 1666 2539 1819 
Q 2322 1972 1947 1972 
L 1259 1972 
L 1259 0 
L 628 0 
L 628 4666 
L 2053 4666 
Q 2853 4666 3247 4331 
Q 3641 3997 3641 3322 
Q 3641 2881 3436 2590 
Q 3231 2300 2841 2188 
z
M 1259 4147 
L 1259 2491 
L 2053 2491 
Q 2509 2491 2742 2702 
Q 2975 2913 2975 3322 
Q 2975 3731 2742 3939 
Q 2509 4147 2053 4147 
L 1259 4147 
z
" transform="scale(0.015625)"/>
       <path id="DejaVuSans-76" d="M 191 3500 
L 800 3500 
L 1894 563 
L 2988 3500 
L 3597 3500 
L 2284 0 
L 1503 0 
L 191 3500 
z
" transform="scale(0.015625)"/>
      </defs>
      <use xlink:href="#DejaVuSans-41"/>
      <use xlink:href="#DejaVuSans-56" x="62.033203"/>
      <use xlink:href="#DejaVuSans-52" x="130.441406"/>
      <use xlink:href="#DejaVuSans-4f" x="199.923828"/>
      <use xlink:href="#DejaVuSans-20" x="278.634766"/>
      <use xlink:href="#DejaVuSans-41" x="310.421875"/>
      <use xlink:href="#DejaVuSans-76" x="372.955078"/>
      <use xlink:href="#DejaVuSans-73" x="432.134766"/>
      <use xlink:href="#DejaVuSans-63" x="484.234375"/>
     </g>
    </g>
    <g id="line2d_45">
     <path d="M 287.649219 23.892163 
L 297.649219 23.892163 
L 307.649219 23.892163 
" style="fill: none; stroke: #d62728; stroke-width: 1.5; stroke-linecap: square"/>
    </g>
    <g id="text_12">
     <!-- AVRO Avsc (optional) -->
     <g transform="translate(315.649219 27.392163)scale(0.1 -0.1)">
      <defs>
       <path id="DejaVuSans-6c" d="M 603 4863 
L 1178 4863 
L 1178 0 
L 603 0 
L 603 4863 
z
" transform="scale(0.015625)"/>
      </defs>
      <use xlink:href="#DejaVuSans-41"/>
      <use xlink:href="#DejaVuSans-56" x="62.033203"/>
      <use xlink:href="#DejaVuSans-52" x="130.441406"/>
      <use xlink:href="#DejaVuSans-4f" x="199.923828"/>
      <use xlink:href="#DejaVuSans-20" x="278.634766"/>
      <use xlink:href="#DejaVuSans-41" x="310.421875"/>
      <use xlink:href="#DejaVuSans-76" x="372.955078"/>
      <use xlink:href="#DejaVuSans-73" x="432.134766"/>
      <use xlink:href="#DejaVuSans-63" x="484.234375"/>
      <use xlink:href="#DejaVuSans-20" x="539.214844"/>
      <use xlink:href="#DejaVuSans-28" x="571.001953"/>
      <use xlink:href="#DejaVuSans-6f" x="610.015625"/>
      <use xlink:href="#DejaVuSans-70" x="671.197266"/>
      <use xlink:href="#DejaVuSans-74" x="734.673828"/>
      <use xlink:href="#DejaVuSans-69" x="773.882812"/>
      <use xlink:href="#DejaVuSans-6f" x="801.666016"/>
      <use xlink:href="#DejaVuSans-6e" x="862.847656"/>
      <use xlink:href="#DejaVuSans-61" x="926.226562"/>
      <use xlink:href="#DejaVuSans-6c" x="987.505859"/>
      <use xlink:href="#DejaVuSans-29" x="1015.289062"/>
     </g>
    </g>
    <g id="line2d_46">
     <path d="M 441.080469 9.214038 
L 451.080469 9.214038 
L 461.080469 9.214038 
" style="fill: none; stroke: #9467bd; stroke-width: 1.5; stroke-linecap: square"/>
    </g>
    <g id="text_13">
     <!-- AVRO Avsc (unmapped) -->
     <g transform="translate(469.080469 12.714038)scale(0.1 -0.1)">
      <use xlink:href="#DejaVuSans-41"/>
      <use xlink:href="#DejaVuSans-56" x="62.033203"/>
      <use xlink:href="#DejaVuSans-52" x="130.441406"/>
      <use xlink:href="#DejaVuSans-4f" x="199.923828"/>
      <use xlink:href="#DejaVuSans-20" x="278.634766"/>
      <use xlink:href="#DejaVuSans-41" x="310.421875"/>
      <use xlink:href="#DejaVuSans-76" x="372.955078"/>
      <use xlink:href="#DejaVuSans-73" x="432.134766"/>
      <use xlink:href="#DejaVuSans-63" x="484.234375"/>
      <use xlink:href="#DejaVuSans-20" x="539.214844"/>
      <use xlink:href="#DejaVuSans-28" x="571.001953"/>
      <use xlink:href="#DejaVuSans-75" x="610.015625"/>
      <use xlink:href="#DejaVuSans-6e" x="673.394531"/>
      <use xlink:href="#DejaVuSans-6d" x="736.773438"/>
      <use xlink:href="#DejaVuSans-61" x="834.185547"/>
      <use xlink:href="#DejaVuSans-70" x="895.464844"/>
      <use xlink:href="#DejaVuSans-70" x="958.941406"/>
      <use xlink:href="#DejaVuSans-65" x="1022.417969"/>
      <use xlink:href="#DejaVuSans-64" x="1083.941406"/>
      <use xlink:href="#DejaVuSans-29" x="1147.417969"/>
     </g>
    </g>
   </g>
  </g>
  <g id="axes_2">
   <g id="patch_8">
    <path d="M 90 265.932 
L 648 265.932 
L 648 161.352 
L 90 161.352 
z
" style="fill: #ffffff"/>
   </g>
   <g id="matplotlib.axis_3">
    <g id="xtick_28">
     <g id="line2d_47">
      <path d="M 166.951075 265.932 
L 166.951075 161.352 
" clip-path="url(#pd15005eb5b)" style="fill: none; stroke: #b0b0b0; stroke-width: 0.8; stroke-linecap: square"/>
     </g>
     <g id="line2d_48">
      <g>
       <use xlink:href="#m03228a5af7" x="166.951075" y="265.932" style="stroke: #000000; stroke-width: 0.8"/>
      </g>
     </g>
     <g id="text_14">
      <!-- $\mathdefault{10^{0}}$ -->
      <g transform="translate(158.151075 280.530438)scale(0.1 -0.1)">
       <use xlink:href="#DejaVuSans-31" transform="translate(0 0.765625)"/>
       <use xlink:href="#DejaVuSans-30" transform="translate(63.623047 0.765625)"/>
       <use xlink:href="#DejaVuSans-30" transform="translate(128.203125 39.046875)scale(0.7)"/>
      </g>
     </g>
    </g>
    <g id="xtick_29">
     <g id="line2d_49">
      <path d="M 358.718932 265.932 
L 358.718932 161.352 
" clip-path="url(#pd15005eb5b)" style="fill: none; stroke: #b0b0b0; stroke-width: 0.8; stroke-linecap: square"/>
     </g>
     <g id="line2d_50">
      <g>
       <use xlink:href="#m03228a5af7" x="358.718932" y="265.932" style="stroke: #000000; stroke-width: 0.8"/>
      </g>
     </g>
     <g id="text_15">
      <!-- $\mathdefault{10^{1}}$ -->
      <g transform="translate(349.918932 280.530438)scale(0.1 -0.1)">
       <use xlink:href="#DejaVuSans-31" transform="translate(0 0.684375)"/>
       <use xlink:href="#DejaVuSans-30" transform="translate(63.623047 0.684375)"/>
       <use xlink:href="#DejaVuSans-31" transform="translate(128.203125 38.965625)scale(0.7)"/>
      </g>
     </g>
    </g>
    <g id="xtick_30">
     <g id="line2d_51">
      <path d="M 550.486789 265.932 
L 550.486789 161.352 
" clip-path="url(#pd15005eb5b)" style="fill: none; stroke: #b0b0b0; stroke-width: 0.8; stroke-linecap: square"/>
     </g>
     <g id="line2d_52">
      <g>
       <use xlink:href="#m03228a5af7" x="550.486789" y="265.932" style="stroke: #000000; stroke-width: 0.8"/>
      </g>
     </g>
     <g id="text_16">
      <!-- $\mathdefault{10^{2}}$ -->
      <g transform="translate(541.686789 280.530438)scale(0.1 -0.1)">
       <use xlink:href="#DejaVuSans-31" transform="translate(0 0.765625)"/>
       <use xlink:href="#DejaVuSans-30" transform="translate(63.623047 0.765625)"/>
       <use xlink:href="#DejaVuSans-32" transform="translate(128.203125 39.046875)scale(0.7)"/>
      </g>
     </g>
    </g>
    <g id="xtick_31">
     <g id="line2d_53">
      <g>
       <use xlink:href="#m20102ec4b7" x="90.638972" y="265.932" style="stroke: #000000; stroke-width: 0.6"/>
      </g>
     </g>
    </g>
    <g id="xtick_32">
     <g id="line2d_54">
      <g>
       <use xlink:href="#m20102ec4b7" x="109.223198" y="265.932" style="stroke: #000000; stroke-width: 0.6"/>
      </g>
     </g>
    </g>
    <g id="xtick_33">
     <g id="line2d_55">
      <g>
       <use xlink:href="#m20102ec4b7" x="124.407616" y="265.932" style="stroke: #000000; stroke-width: 0.6"/>
      </g>
     </g>
    </g>
    <g id="xtick_34">
     <g id="line2d_56">
      <g>
       <use xlink:href="#m20102ec4b7" x="137.245858" y="265.932" style="stroke: #000000; stroke-width: 0.6"/>
      </g>
     </g>
    </g>
    <g id="xtick_35">
     <g id="line2d_57">
      <g>
       <use xlink:href="#m20102ec4b7" x="148.36685" y="265.932" style="stroke: #000000; stroke-width: 0.6"/>
      </g>
     </g>
    </g>
    <g id="xtick_36">
     <g id="line2d_58">
      <g>
       <use xlink:href="#m20102ec4b7" x="158.176259" y="265.932" style="stroke: #000000; stroke-width: 0.6"/>
      </g>
     </g>
    </g>
    <g id="xtick_37">
     <g id="line2d_59">
      <g>
       <use xlink:href="#m20102ec4b7" x="224.678952" y="265.932" style="stroke: #000000; stroke-width: 0.6"/>
      </g>
     </g>
    </g>
    <g id="xtick_38">
     <g id="line2d_60">
      <g>
       <use xlink:href="#m20102ec4b7" x="258.447596" y="265.932" style="stroke: #000000; stroke-width: 0.6"/>
      </g>
     </g>
    </g>
    <g id="xtick_39">
     <g id="line2d_61">
      <g>
       <use xlink:href="#m20102ec4b7" x="282.406829" y="265.932" style="stroke: #000000; stroke-width: 0.6"/>
      </g>
     </g>
    </g>
    <g id="xtick_40">
     <g id="line2d_62">
      <g>
       <use xlink:href="#m20102ec4b7" x="300.991055" y="265.932" style="stroke: #000000; stroke-width: 0.6"/>
      </g>
     </g>
    </g>
    <g id="xtick_41">
     <g id="line2d_63">
      <g>
       <use xlink:href="#m20102ec4b7" x="316.175473" y="265.932" style="stroke: #000000; stroke-width: 0.6"/>
      </g>
     </g>
    </g>
    <g id="xtick_42">
     <g id="line2d_64">
      <g>
       <use xlink:href="#m20102ec4b7" x="329.013715" y="265.932" style="stroke: #000000; stroke-width: 0.6"/>
      </g>
     </g>
    </g>
    <g id="xtick_43">
     <g id="line2d_65">
      <g>
       <use xlink:href="#m20102ec4b7" x="340.134707" y="265.932" style="stroke: #000000; stroke-width: 0.6"/>
      </g>
     </g>
    </g>
    <g id="xtick_44">
     <g id="line2d_66">
      <g>
       <use xlink:href="#m20102ec4b7" x="349.944116" y="265.932" style="stroke: #000000; stroke-width: 0.6"/>
      </g>
     </g>
    </g>
    <g id="xtick_45">
     <g id="line2d_67">
      <g>
       <use xlink:href="#m20102ec4b7" x="416.446809" y="265.932" style="stroke: #000000; stroke-width: 0.6"/>
      </g>
     </g>
    </g>
    <g id="xtick_46">
     <g id="line2d_68">
      <g>
       <use xlink:href="#m20102ec4b7" x="450.215453" y="265.932" style="stroke: #000000; stroke-width: 0.6"/>
      </g>
     </g>
    </g>
    <g id="xtick_47">
     <g id="line2d_69">
      <g>
       <use xlink:href="#m20102ec4b7" x="474.174687" y="265.932" style="stroke: #000000; stroke-width: 0.6"/>
      </g>
     </g>
    </g>
    <g id="xtick_48">
     <g id="line2d_70">
      <g>
       <use xlink:href="#m20102ec4b7" x="492.758912" y="265.932" style="stroke: #000000; stroke-width: 0.6"/>
      </g>
     </g>
    </g>
    <g id="xtick_49">
     <g id="line2d_71">
      <g>
       <use xlink:href="#m20102ec4b7" x="507.94333" y="265.932" style="stroke: #000000; stroke-width: 0.6"/>
      </g>
     </g>
    </g>
    <g id="xtick_50">
     <g id="line2d_72">
      <g>
       <use xlink:href="#m20102ec4b7" x="520.781572" y="265.932" style="stroke: #000000; stroke-width: 0.6"/>
      </g>
     </g>
    </g>
    <g id="xtick_51">
     <g id="line2d_73">
      <g>
       <use xlink:href="#m20102ec4b7" x="531.902564" y="265.932" style="stroke: #000000; stroke-width: 0.6"/>
      </g>
     </g>
    </g>
    <g id="xtick_52">
     <g id="line2d_74">
      <g>
       <use xlink:href="#m20102ec4b7" x="541.711973" y="265.932" style="stroke: #000000; stroke-width: 0.6"/>
      </g>
     </g>
    </g>
    <g id="xtick_53">
     <g id="line2d_75">
      <g>
       <use xlink:href="#m20102ec4b7" x="608.214667" y="265.932" style="stroke: #000000; stroke-width: 0.6"/>
      </g>
     </g>
    </g>
    <g id="xtick_54">
     <g id="line2d_76">
      <g>
       <use xlink:href="#m20102ec4b7" x="641.98331" y="265.932" style="stroke: #000000; stroke-width: 0.6"/>
      </g>
     </g>
    </g>
    <g id="text_17">
     <!-- JSON size (MB) -->
     <g transform="translate(332.155469 294.208563)scale(0.1 -0.1)">
      <use xlink:href="#DejaVuSans-4a"/>
      <use xlink:href="#DejaVuSans-53" x="29.492188"/>
      <use xlink:href="#DejaVuSans-4f" x="92.96875"/>
      <use xlink:href="#DejaVuSans-4e" x="171.679688"/>
      <use xlink:href="#DejaVuSans-20" x="246.484375"/>
      <use xlink:href="#DejaVuSans-73" x="278.271484"/>
      <use xlink:href="#DejaVuSans-69" x="330.371094"/>
      <use xlink:href="#DejaVuSans-7a" x="358.154297"/>
      <use xlink:href="#DejaVuSans-65" x="410.644531"/>
      <use xlink:href="#DejaVuSans-20" x="472.167969"/>
      <use xlink:href="#DejaVuSans-28" x="503.955078"/>
      <use xlink:href="#DejaVuSans-4d" x="542.96875"/>
      <use xlink:href="#DejaVuSans-42" x="629.248047"/>
      <use xlink:href="#DejaVuSans-29" x="697.851562"/>
     </g>
    </g>
   </g>
   <g id="matplotlib.axis_4">
    <g id="ytick_4">
     <g id="line2d_77">
      <path d="M 90 265.521685 
L 648 265.521685 
" clip-path="url(#pd15005eb5b)" style="fill: none; stroke: #b0b0b0; stroke-width: 0.8; stroke-linecap: square"/>
     </g>
     <g id="line2d_78">
      <g>
       <use xlink:href="#m92917bcbde" x="90" y="265.521685" style="stroke: #000000; stroke-width: 0.8"/>
      </g>
     </g>
     <g id="text_18">
      <!-- 0.00 -->
      <g transform="translate(60.734375 269.320904)scale(0.1 -0.1)">
       <use xlink:href="#DejaVuSans-30"/>
       <use xlink:href="#DejaVuSans-2e" x="63.623047"/>
       <use xlink:href="#DejaVuSans-30" x="95.410156"/>
       <use xlink:href="#DejaVuSans-30" x="159.033203"/>
      </g>
     </g>
    </g>
    <g id="ytick_5">
     <g id="line2d_79">
      <path d="M 90 240.878346 
L 648 240.878346 
" clip-path="url(#pd15005eb5b)" style="fill: none; stroke: #b0b0b0; stroke-width: 0.8; stroke-linecap: square"/>
     </g>
     <g id="line2d_80">
      <g>
       <use xlink:href="#m92917bcbde" x="90" y="240.878346" style="stroke: #000000; stroke-width: 0.8"/>
      </g>
     </g>
     <g id="text_19">
      <!-- 0.25 -->
      <g transform="translate(60.734375 244.677565)scale(0.1 -0.1)">
       <use xlink:href="#DejaVuSans-30"/>
       <use xlink:href="#DejaVuSans-2e" x="63.623047"/>
       <use xlink:href="#DejaVuSans-32" x="95.410156"/>
       <use xlink:href="#DejaVuSans-35" x="159.033203"/>
      </g>
     </g>
    </g>
    <g id="ytick_6">
     <g id="line2d_81">
      <path d="M 90 216.235007 
L 648 216.235007 
" clip-path="url(#pd15005eb5b)" style="fill: none; stroke: #b0b0b0; stroke-width: 0.8; stroke-linecap: square"/>
     </g>
     <g id="line2d_82">
      <g>
       <use xlink:href="#m92917bcbde" x="90" y="216.235007" style="stroke: #000000; stroke-width: 0.8"/>
      </g>
     </g>
     <g id="text_20">
      <!-- 0.50 -->
      <g transform="translate(60.734375 220.034226)scale(0.1 -0.1)">
       <use xlink:href="#DejaVuSans-30"/>
       <use xlink:href="#DejaVuSans-2e" x="63.623047"/>
       <use xlink:href="#DejaVuSans-35" x="95.410156"/>
       <use xlink:href="#DejaVuSans-30" x="159.033203"/>
      </g>
     </g>
    </g>
    <g id="ytick_7">
     <g id="line2d_83">
      <path d="M 90 191.591668 
L 648 191.591668 
" clip-path="url(#pd15005eb5b)" style="fill: none; stroke: #b0b0b0; stroke-width: 0.8; stroke-linecap: square"/>
     </g>
     <g id="line2d_84">
      <g>
       <use xlink:href="#m92917bcbde" x="90" y="191.591668" style="stroke: #000000; stroke-width: 0.8"/>
      </g>
     </g>
     <g id="text_21">
      <!-- 0.75 -->
      <g transform="translate(60.734375 195.390887)scale(0.1 -0.1)">
       <defs>
        <path id="DejaVuSans-37" d="M 525 4666 
L 3525 4666 
L 3525 4397 
L 1831 0 
L 1172 0 
L 2766 4134 
L 525 4134 
L 525 4666 
z
" transform="scale(0.015625)"/>
       </defs>
       <use xlink:href="#DejaVuSans-30"/>
       <use xlink:href="#DejaVuSans-2e" x="63.623047"/>
       <use xlink:href="#DejaVuSans-37" x="95.410156"/>
       <use xlink:href="#DejaVuSans-35" x="159.033203"/>
      </g>
     </g>
    </g>
    <g id="ytick_8">
     <g id="line2d_85">
      <path d="M 90 166.948329 
L 648 166.948329 
" clip-path="url(#pd15005eb5b)" style="fill: none; stroke: #b0b0b0; stroke-width: 0.8; stroke-linecap: square"/>
     </g>
     <g id="line2d_86">
      <g>
       <use xlink:href="#m92917bcbde" x="90" y="166.948329" style="stroke: #000000; stroke-width: 0.8"/>
      </g>
     </g>
     <g id="text_22">
      <!-- 1.00 -->
      <g transform="translate(60.734375 170.747548)scale(0.1 -0.1)">
       <use xlink:href="#DejaVuSans-31"/>
       <use xlink:href="#DejaVuSans-2e" x="63.623047"/>
       <use xlink:href="#DejaVuSans-30" x="95.410156"/>
       <use xlink:href="#DejaVuSans-30" x="159.033203"/>
      </g>
     </g>
    </g>
    <g id="text_23">
     <!-- Decode time (ratio) -->
     <g transform="translate(54.654687 262.531844)rotate(-90)scale(0.1 -0.1)">
      <defs>
       <path id="DejaVuSans-44" d="M 1259 4147 
L 1259 519 
L 2022 519 
Q 2988 519 3436 956 
Q 3884 1394 3884 2338 
Q 3884 3275 3436 3711 
Q 2988 4147 2022 4147 
L 1259 4147 
z
M 628 4666 
L 1925 4666 
Q 3281 4666 3915 4102 
Q 4550 3538 4550 2338 
Q 4550 1131 3912 565 
Q 3275 0 1925 0 
L 628 0 
L 628 4666 
z
" transform="scale(0.015625)"/>
      </defs>
      <use xlink:href="#DejaVuSans-44"/>
      <use xlink:href="#DejaVuSans-65" x="77.001953"/>
      <use xlink:href="#DejaVuSans-63" x="138.525391"/>
      <use xlink:href="#DejaVuSans-6f" x="193.505859"/>
      <use xlink:href="#DejaVuSans-64" x="254.6875"/>
      <use xlink:href="#DejaVuSans-65" x="318.164062"/>
      <use xlink:href="#DejaVuSans-20" x="379.6875"/>
      <use xlink:href="#DejaVuSans-74" x="411.474609"/>
      <use xlink:href="#DejaVuSans-69" x="450.683594"/>
      <use xlink:href="#DejaVuSans-6d" x="478.466797"/>
      <use xlink:href="#DejaVuSans-65" x="575.878906"/>
      <use xlink:href="#DejaVuSans-20" x="637.402344"/>
      <use xlink:href="#DejaVuSans-28" x="669.189453"/>
      <use xlink:href="#DejaVuSans-72" x="708.203125"/>
      <use xlink:href="#DejaVuSans-61" x="749.316406"/>
      <use xlink:href="#DejaVuSans-74" x="810.595703"/>
      <use xlink:href="#DejaVuSans-69" x="849.804688"/>
      <use xlink:href="#DejaVuSans-6f" x="877.587891"/>
      <use xlink:href="#DejaVuSans-29" x="938.769531"/>
     </g>
    </g>
   </g>
   <g id="line2d_87">
    <path d="M 115.363636 166.948329 
L 125.293172 166.948329 
L 135.224169 166.948329 
L 145.15264 166.948329 
L 155.077552 166.948329 
L 164.998156 166.948329 
L 174.916324 166.948329 
L 184.830331 166.948329 
L 194.741239 166.948329 
L 204.647421 166.948329 
L 214.54926 166.948329 
L 224.446666 166.948329 
L 234.339827 166.948329 
L 244.229245 166.948329 
L 254.114098 166.948329 
L 263.994106 166.948329 
L 273.869057 166.948329 
L 283.739435 166.948329 
L 293.60461 166.948329 
L 303.465292 166.948329 
L 313.32069 166.948329 
L 323.17107 166.948329 
L 333.016436 166.948329 
L 342.856771 166.948329 
L 352.692013 166.948329 
L 362.522702 166.948329 
L 381.088042 166.948329 
L 399.625657 166.948329 
L 418.209883 166.948329 
L 436.794108 166.948329 
L 455.378334 166.948329 
L 473.962559 166.948329 
L 492.546785 166.948329 
L 511.13101 166.948329 
L 529.715236 166.948329 
L 548.299462 166.948329 
L 566.883687 166.948329 
L 585.467913 166.948329 
L 604.052138 166.948329 
L 622.636364 166.948329 
" clip-path="url(#pd15005eb5b)" style="fill: none; stroke: #1f77b4; stroke-width: 1.5; stroke-linecap: square"/>
   </g>
   <g id="line2d_88">
    <path d="M 115.363636 186.090646 
L 125.293172 205.51552 
L 135.224169 194.190732 
L 145.15264 181.566386 
L 155.077552 193.991128 
L 164.998156 195.690874 
L 174.916324 194.93216 
L 184.830331 198.867422 
L 194.741239 189.219096 
L 204.647421 189.761952 
L 214.54926 193.781277 
L 224.446666 201.956764 
L 234.339827 189.829745 
L 244.229245 188.586833 
L 254.114098 184.05718 
L 263.994106 166.105636 
L 273.869057 167.715047 
L 283.739435 192.48854 
L 293.60461 215.725526 
L 303.465292 168.088218 
L 313.32069 190.653735 
L 323.17107 186.209061 
L 333.016436 180.981478 
L 342.856771 176.537238 
L 352.692013 183.244618 
L 362.522702 184.379993 
L 381.088042 187.211791 
L 399.625657 182.910443 
L 418.209883 184.160884 
L 436.794108 180.172187 
L 455.378334 189.057876 
L 473.962559 191.256029 
L 492.546785 188.39182 
L 511.13101 187.813713 
L 529.715236 205.816328 
L 548.299462 185.049544 
L 566.883687 181.915381 
L 585.467913 193.004237 
L 604.052138 190.503307 
L 622.636364 182.130084 
" clip-path="url(#pd15005eb5b)" style="fill: none; stroke: #ff7f0e; stroke-width: 1.5; stroke-linecap: square"/>
   </g>
   <g id="line2d_89">
    <path d="M 115.363636 253.95757 
L 125.293172 260.297632 
L 135.224169 259.465049 
L 145.15264 260.105786 
L 155.077552 211.741011 
L 164.998156 225.487237 
L 174.916324 257.418909 
L 184.830331 258.010367 
L 194.741239 256.780919 
L 204.647421 257.009907 
L 214.54926 257.264915 
L 224.446666 256.589671 
L 234.339827 258.813848 
L 244.229245 258.943379 
L 254.114098 261.178364 
L 263.994106 259.370664 
L 273.869057 233.686191 
L 283.739435 238.192509 
L 293.60461 261.140144 
L 303.465292 259.299224 
L 313.32069 234.656791 
L 323.17107 247.922309 
L 333.016436 259.497727 
L 342.856771 245.108308 
L 352.692013 254.775559 
L 362.522702 238.623836 
L 381.088042 241.502671 
L 399.625657 233.600517 
L 418.209883 233.900145 
L 436.794108 226.792058 
L 455.378334 234.521352 
L 473.962559 243.554032 
L 492.546785 229.26225 
L 511.13101 241.393876 
L 529.715236 232.090535 
L 548.299462 244.887308 
L 566.883687 230.752596 
L 585.467913 246.317966 
L 604.052138 235.559625 
L 622.636364 235.982317 
" clip-path="url(#pd15005eb5b)" style="fill: none; stroke: #2ca02c; stroke-width: 1.5; stroke-linecap: square"/>
   </g>
   <g id="line2d_90">
    <path d="M 115.363636 231.815179 
L 125.293172 247.934211 
L 135.224169 250.002073 
L 145.15264 251.640952 
L 155.077552 193.688278 
L 164.998156 246.482375 
L 174.916324 250.377268 
L 184.830331 251.414574 
L 194.741239 248.822744 
L 204.647421 246.828284 
L 214.54926 249.91923 
L 224.446666 251.692795 
L 234.339827 249.152692 
L 244.229245 249.723996 
L 254.114098 207.62009 
L 263.994106 248.139697 
L 273.869057 229.468287 
L 283.739435 251.66339 
L 293.60461 255.689919 
L 303.465292 251.357335 
L 313.32069 228.467857 
L 323.17107 247.477873 
L 333.016436 236.705911 
L 342.856771 218.502687 
L 352.692013 235.161751 
L 362.522702 220.491489 
L 381.088042 233.471912 
L 399.625657 224.052533 
L 418.209883 225.793178 
L 436.794108 226.736697 
L 455.378334 231.010625 
L 473.962559 184.110366 
L 492.546785 237.123871 
L 511.13101 206.268715 
L 529.715236 239.218 
L 548.299462 229.219017 
L 566.883687 238.133302 
L 585.467913 238.937608 
L 604.052138 237.234379 
L 622.636364 236.202414 
" clip-path="url(#pd15005eb5b)" style="fill: none; stroke: #d62728; stroke-width: 1.5; stroke-linecap: square"/>
   </g>
   <g id="line2d_91">
    <path d="M 115.363636 248.354595 
L 125.293172 251.34472 
L 135.224169 248.681078 
L 145.15264 232.337677 
L 155.077552 248.485365 
L 164.998156 248.771823 
L 174.916324 241.381664 
L 184.830331 230.688949 
L 194.741239 245.638647 
L 204.647421 247.949482 
L 214.54926 248.083586 
L 224.446666 248.365778 
L 234.339827 244.492465 
L 244.229245 248.372421 
L 254.114098 230.676595 
L 263.994106 249.792305 
L 273.869057 248.380193 
L 283.739435 224.880155 
L 293.60461 238.957614 
L 303.465292 248.690616 
L 313.32069 231.635641 
L 323.17107 250.94169 
L 333.016436 220.756026 
L 342.856771 216.55639 
L 352.692013 224.706488 
L 362.522702 230.54302 
L 381.088042 234.225101 
L 399.625657 223.113443 
L 418.209883 223.034782 
L 436.794108 222.511402 
L 455.378334 177.202844 
L 473.962559 230.184765 
L 492.546785 210.148693 
L 511.13101 225.413103 
L 529.715236 228.802834 
L 548.299462 232.859789 
L 566.883687 225.192588 
L 585.467913 231.396499 
" clip-path="url(#pd15005eb5b)" style="fill: none; stroke: #9467bd; stroke-width: 1.5; stroke-linecap: square"/>
   </g>
   <g id="patch_9">
    <path d="M 90 265.932 
L 90 161.352 
" style="fill: none; stroke: #000000; stroke-width: 0.8; stroke-linejoin: miter; stroke-linecap: square"/>
   </g>
   <g id="patch_10">
    <path d="M 648 265.932 
L 648 161.352 
" style="fill: none; stroke: #000000; stroke-width: 0.8; stroke-linejoin: miter; stroke-linecap: square"/>
   </g>
   <g id="patch_11">
    <path d="M 90 265.932 
L 648 265.932 
" style="fill: none; stroke: #000000; stroke-width: 0.8; stroke-linejoin: miter; stroke-linecap: square"/>
   </g>
   <g id="patch_12">
    <path d="M 90 161.352 
L 648 161.352 
" style="fill: none; stroke: #000000; stroke-width: 0.8; stroke-linejoin: miter; stroke-linecap: square"/>
   </g>
  </g>
 </g>
 <defs>
  <clipPath id="pbade0408e9">
   <rect x="90" y="35.856" width="558" height="104.58"/>
  </clipPath>
  <clipPath id="pd15005eb5b">
   <rect x="90" y="161.352" width="558" height="104.58"/>
  </clipPath>
 </defs>
</svg>
